<?xml version="1.0" standalone="no"?>
<!DOCTYPE svg PUBLIC "-//W3C//DTD SVG 1.1//EN" "http://www.w3.org/Graphics/SVG/1.1/DTD/svg11.dtd" >
<svg xmlns="http://www.w3.org/2000/svg">
<metadata></metadata>
<defs>
<font id="boltontitlingelongatedregular" horiz-adv-x="548" >
<font-face units-per-em="2048" ascent="1638" descent="-410" />
<missing-glyph horiz-adv-x="481" />
<glyph horiz-adv-x="2048" />
<glyph horiz-adv-x="2048" />
<glyph unicode="&#xd;" horiz-adv-x="2048" />
<glyph unicode=" "  horiz-adv-x="481" />
<glyph unicode="&#x09;" horiz-adv-x="481" />
<glyph unicode="&#xa0;" horiz-adv-x="481" />
<glyph unicode="!" horiz-adv-x="169" d="M-2 154q0 -61 25 -109q25 -45 57 -45q33 0 57 45q25 47 25 109q0 63 -25 108q-26 45 -57 45t-57 -45q-25 -45 -25 -108zM8 1219l27 -859q35 39 45 43q6 0 51 -38q0 236 8 426v16q13 267 17 412v153q0 244 -17 359q-25 174 -55 174q-31 0 -55 -170q-20 -135 -21 -408v-108 z" />
<glyph unicode="&#x22;" horiz-adv-x="243" d="M4 1735q2 -113 13.5 -151t33.5 -38q23 0 33 38t10 151v141h-90v-141zM143 1735q2 -111 12.5 -150t32.5 -39q23 0 33 37t10 152v141h-88v-141z" />
<glyph unicode="#" d="M0 459h170l-27 -355h33l29 355h92l-29 -355h35l29 355h190v63h-186l12 170h174v64h-170l31 374h-37l-29 -374h-92l31 374h-37l-26 -374h-193v-64h186l-12 -170h-174v-63zM209 522l12 170h92l-12 -170h-92z" />
<glyph unicode="$" horiz-adv-x="632" d="M2 250q0 -68 14 -78q78 -125 215 -160l-14 -250h27l14 242q16 -2 55 -2q98 0 195 127q92 121 92 324q-6 248 -100 331q-90 84 -195 125l12 230q47 -31 91 -76q45 -51 65 -109l6 -12t10 -18q10 -18 21 -19q23 0 22 39v6q-2 6 -2 11q-4 35 -16 83q-10 49 -18 105 q-2 31 -25 45q-16 8 -37 25q-37 31 -110 49l14 262h-27l-12 -256l-8 2q-20 4 -31 6v-2q-2 0 -18 2h-19q-72 0 -129 -47q-74 -61 -74 -238q0 -100 31 -161q33 -70 86 -95q23 -23 60 -43q29 -16 69 -32l-28 -508q-68 37 -107 125q-37 90 -55 172q-6 27 -13 71q-8 51 -36 52 q-25 0 -25 -54v-78v-100v-96zM141 1071q0 51 29 70q35 18 70 24q24 0 51 -14l-12 -231q-41 16 -54 24q-31 20 -55 53q-29 35 -29 74zM266 147l27 506q27 -12 69 -37l9 -4q41 -45 63 -92q23 -51 23 -135q0 -115 -45 -180q-43 -63 -90 -64h-7q-14 0 -34 4q-11 2 -15 2z" />
<glyph unicode="%" horiz-adv-x="632" d="M-6 977q0 -131 51 -221q49 -94 121 -94t121 94q51 90 51 221q0 137 -57 235q66 -39 122 -38q63 0 144 49l-533 -1223h25l543 1245l2 2q2 0 2 4v4l6 19h-6v4q0 -4 -6 -4h-13l-4 -12q-86 -61 -160 -62q-78 0 -180 78v-4q-29 16 -57 16q-72 0 -121 -92q-51 -90 -51 -221z M90 975q0 102 16 188q17 78 58 78q45 0 59 -76q14 -84 17 -190q0 -125 -21 -189q-23 -72 -53 -71q-31 4 -53 78q-23 78 -23 182zM258 305q0 -131 51 -221q49 -90 121 -90t121 90q51 90 51 221q0 129 -51 219q-49 92 -121 92t-121 -92q-51 -90 -51 -219zM354 305 q0 102 17 184q18 78 59 78q43 0 57 -75q16 -74 19 -187q0 -113 -23 -190q-18 -72 -51 -72q-33 4 -55 78q-23 80 -23 184z" />
<glyph unicode="&#x26;" horiz-adv-x="827" d="M-2 647q0 -90 16 -184q45 -260 183 -381q82 -70 161 -70q55 0 119 35q2 0 6 2h2q12 0 19 -18q10 -29 28 -29q59 14 113 14q61 0 121 -14q14 0 14 12q0 4 -4 17q-20 68 -37 67q-12 0 -65 99q-2 4 -2 14q0 14 12 33q31 47 41 73q16 29 16 52q-6 25 -10 131q-2 45 -2 131 q0 29 -12 28l-2 -2q-6 -2 -10 -2q-18 -8 -19 -49l2 -24q-12 -100 -55 -215q-10 -27 -17 -27l-4 4q-2 6 -6 16q-4 8 -6 15q-45 135 -78 225t-112 324q-6 18 -21 61q-16 49 -22 74q-8 29 -21 65q-10 31 -18 56q0 4 -2 8q-4 8 -4 22q0 20 18 27q18 8 57 8q41 0 78 -14 q72 -29 119 -101q14 -25 29 -24l6 4q10 10 10 20t-8 35l-2 2q-33 61 -56 129q-2 6 -2 9q-8 23 -14 30q-8 12 -31 17q-29 12 -82 12q-72 0 -135 -39q-4 -4 -12 -4q-16 0 -29 37q-4 10 -10 35q-2 10 -6 20q-12 37 -16 51q-8 37 -19 84l-4 21q-4 29 -4 39q0 4 2 8v6q6 33 27 51 q4 8 14 8q14 0 35 -26q29 -41 37 -70q4 -16 4 -31v-14q-6 -14 -6 -45q0 -23 6 -39q4 -20 6 -22q4 -18 14 -19q8 0 14 6q20 16 21 47q4 61 25 99q20 31 36 86q8 23 9 45q0 27 -9 45q0 8 -4 16q-16 63 -51 101q-30 30 -61 30q-10 4 -29 4q-25 0 -49 -12q-119 -68 -137 -223 q-6 -25 -7 -82q0 -133 46 -299l2 -10q6 -31 6 -43q0 -29 -15 -45q-88 -117 -125 -318q-23 -117 -22 -215zM156 827q0 135 30 228q10 29 19 37q8 0 16 -27q8 -23 25 -72l24 -80q96 -303 140 -450q6 -23 26 -90q33 -117 41 -152q6 -12 6 -33q0 -33 -22 -32h-10q-10 -2 -13 -2 q-74 0 -141 94q-82 113 -115 307q-27 133 -26 272z" />
<glyph unicode="'" horiz-adv-x="98" d="M4 1735q0 -111 11.5 -150t33.5 -39q23 0 34 39t11 150v141h-90v-141z" />
<glyph unicode="(" horiz-adv-x="143" d="M-4 969q0 -397 41 -709q41 -306 98 -369q-39 154 -63 447q-25 287 -25 631t25 626q25 291 63 451q-57 -68 -98 -371q-41 -311 -41 -706z" />
<glyph unicode=")" horiz-adv-x="155" d="M8 -88q61 70 101 371q41 311 41 708q0 395 -41 707q-39 301 -101 370q43 -178 64 -450q25 -283 24 -627q0 -346 -24 -629q-21 -272 -64 -450z" />
<glyph unicode="*" horiz-adv-x="186" d="M8 1507q2 0 2 -2q12 0 68 90q0 -152 12 -151q10 0 16 151q49 -90 64 -90l4 2v2q0 12 -14 47q-10 25 -35 78l-12 25q35 70 47 100q14 31 14 47v2l-4 2q-14 0 -64 -90q-6 152 -16 152q-12 0 -12 -154q-55 92 -68 92l-2 -2v-4q0 -14 15 -45q12 -39 47 -100q-35 -66 -47 -100 q-14 -35 -15 -48v-4z" />
<glyph unicode="+" d="M0 571h244v-444h35v444h243v64h-243v448h-35v-448h-244v-64z" />
<glyph unicode="," horiz-adv-x="202" d="M0 137q0 -59 27 -98q29 -41 67 -41q6 -6 17 -18q6 -12 6 -25q0 -18 -15 -72q-12 -41 -12 -53q0 -4 2 -4q22 0 53 57q20 39 33 109q10 57 10 102v21q-2 16 -2 20q-12 141 -92 141q-39 0 -67 -40q-27 -39 -27 -99z" />
<glyph unicode="-" d="M0 571h522v64h-522v-64z" />
<glyph unicode="." horiz-adv-x="169" d="M-2 446q0 -57 25 -98t57 -41q33 0 57 41q25 41 25 98q0 59 -25 99q-24 41 -57 41t-57 -41q-25 -39 -25 -99z" />
<glyph unicode="/" horiz-adv-x="434" d="M16 49h41l357 1755h-39z" />
<glyph unicode="0" horiz-adv-x="831" d="M-4 944q0 -383 125 -668q127 -276 270 -276q147 0 273 254q125 260 124 690q0 434 -129 686q-129 256 -268 256q-135 0 -264 -278q-131 -274 -131 -664zM174 862v78q10 338 57 569q47 236 156 238q106 0 166 -225q49 -190 49 -482v-49q-2 -29 -2 -51q-8 -360 -65 -580 q-55 -217 -148 -229q-94 0 -156 231q-57 209 -57 500z" />
<glyph unicode="1" horiz-adv-x="434" d="M-4 1260q0 -20 20 -48q6 -10 23 -10q2 0 4 2q6 2 8 2q10 0 15 11q4 6 10 12q14 23 37 45l26 26l13 13q4 6 10 6q8 0 12 -4q14 -10 14 -33v-186v-183q0 -51 2 -106v-88q0 -252 -8 -359q-8 -162 -24 -217q-12 -51 -31 -55q-18 -4 -27 -70v-12q0 -18 21 -18q23 6 72 14h12 q43 4 57 4q41 0 66 -2t65 -10q20 0 21 29q0 49 -15 49l-2 -2q-2 0 -6 -2q-10 0 -24 36q-16 43 -27 203q-6 74 -9 204t-3 349q0 106 2 193v266q0 180 2 262t2 176q8 33 8 64q0 47 -18 49l-5 2h-4q-12 0 -26 -10q-10 -14 -17 -37q-12 -45 -36 -121q-8 -25 -11 -31 q-16 -49 -53 -133q-35 -72 -78 -119q-53 -59 -80 -106q-8 -14 -14 -37q-4 -8 -4 -18z" />
<glyph unicode="2" horiz-adv-x="733" d="M-8 1376q4 -270 119 -403q12 -12 16 -15q4 -4 10 -12q33 -23 68 -22q119 0 151 131q2 4 2 16h2v16q0 63 -30 64q-10 0 -21 -18q-39 -61 -96 -62q-25 0 -45 27q-18 20 -35 57q-25 78 -24 188q0 125 55 232q59 104 131 104q37 0 65 -8q23 -10 60 -59q39 -51 57 -121 q31 -100 31 -240q-6 -84 -27 -180l-6 -22q-27 -90 -43 -131q-27 -55 -55 -105q-31 -51 -62 -92q-23 -23 -39 -45l-2 -2q-109 -141 -159 -275q-57 -139 -105 -336q-2 -4 -2 -16q0 -14 6 -27q6 -23 17 -22q113 14 237 20q78 0 142.5 -3t130.5 -13q31 0 41 47q10 37 18 92 q6 51 16 90q8 45 27 99q18 43 31 98q4 8 4 29q0 18 -4 28q-5 29 -21 29q-39 0 -55 -65q-51 -156 -154 -179q-102 -23 -247 -26q-8 0 -15 8q-2 0 -2 10q0 8 6 29q57 133 142 229q80 90 170 205q82 102 141 231q57 121 57 310q0 125 -28 268h-2q-33 147 -117 250 q-86 102 -201 102q-143 0 -252 -143q-104 -143 -104 -367z" />
<glyph unicode="3" horiz-adv-x="794" d="M-8 489q0 -182 92 -335q94 -156 238 -156q72 0 143 59q74 57 139 156q61 100 105 223q43 135 43 258q0 137 -13.5 240.5t-40.5 195.5q-61 193 -176 246q-18 6 -18 29q4 27 8 35q37 80 86 168q61 111 94 168q18 41 19 69q-1 37 -15 37q-104 -12 -250 -16q-74 0 -132 4 t-121 14q-12 0 -19 -20q-8 -18 -12 -35q-41 -139 -92 -250q-10 -23 -15 -66q0 -43 17 -43q39 0 67 82q31 74 140 95q39 10 110 10q27 0 76 -8q14 -2 20 -7l2 -4q0 -8 -12 -36q-55 -119 -96 -191q-29 -53 -90 -156q-2 -2 -15 -22q-18 -31 -18 -72q0 -35 14 -35q27 0 41 17 q23 18 45 18q98 0 168 -147q51 -127 51 -277q0 -49 -2 -78q-2 -199 -71 -350q-68 -156 -174 -155q-80 0 -135 104t-56 234v49q0 80 19 129q12 35 45 67q35 33 35 68v20q-2 18 -7 25q-14 14 -51 14q-33 -2 -57 -24q-129 -100 -129 -351z" />
<glyph unicode="4" horiz-adv-x="778" d="M-2 428q0 -51 35 -63h420q16 0 24 -3q10 0 10 -53q-4 -119 -8 -145q-6 -33 -18 -43q-2 -2 -12 -10q-4 -4 -15 -13q-12 -10 -35 -80q0 -8 7 -18q6 -12 14 -12q20 6 69 14l13 2q41 2 55 2q33 0 66 -8q14 -2 41 -8q18 -6 20 -6q20 0 21 30q-2 43 -9 54q-8 10 -18 24 q-10 18 -23 60q-10 43 -18 149q0 10 4 27q2 10 2 12q10 25 29 25h37q33 0 32 61v70q0 59 -32 59h-45q-33 0 -33 27q-4 37 -4 57q-2 39 -2 131q0 98 2 154q4 295 4 442q4 291 4 440q-4 12 -4 33q-2 39 -27 43q-41 -6 -63 -80q-117 -346 -246 -653q-114 -275 -268 -631 q-23 -33 -29 -90zM160 555q0 23 6 37q78 207 143 360q72 164 144 369q8 10 18 39q4 8 6 8q8 0 8 -57q-2 -66 -2 -199v-199q2 -37 2 -79q2 -63 2 -80v-138q0 -57 -18 -61h-23l-266 -12h-4q-4 -2 -6 -2q-10 0 -10 14z" />
<glyph unicode="5" horiz-adv-x="757" d="M-6 412q0 -242 98 -344q102 -104 244 -105q150 0 268 211q111 201 111 459v20q-2 14 -2 19q0 326 -107 512q-113 197 -264 196q-78 -6 -147 -51q-4 -4 -13 -4q-12 0 -12 25q2 14 2 53q-2 18 -2 57v41v45v31q0 20 20 20q45 6 136 7q80 0 176 -11q4 -4 10 -4q16 0 29 2 q18 0 30 49q20 84 68 181q8 16 8 34q0 12 -2 19q-8 18 -29 18q-14 -12 -24 -24t-25 -21q-70 -16 -135 -16q-10 0 -39 4q-25 2 -41 2q-123 12 -231 31v-2q-4 0 -6 2t-6 2l-7 2q-6 0 -12 -10q-2 -4 -2 -7q-4 -14 -4 -24q4 -119 8 -180t4 -183q0 -119 -4 -180q-4 -59 -8 -178 v-90q0 -61 35 -62q10 0 31 29q10 20 65 84q33 39 82 39q23 0 43 -6q88 -20 147 -152q61 -133 62 -342q0 -227 -60 -346q-59 -127 -149 -151q-10 -2 -31 -2q-76 0 -129 92q-53 94 -53 225q0 207 102 256h2q20 6 21 53q0 51 -27 51q-8 0 -16 3h-12q-82 0 -138 -80 q-61 -88 -65 -299z" />
<glyph unicode="6" horiz-adv-x="790" d="M-2 813q0 -424 121 -631q121 -213 303 -213v2q2 0 4 -2h2q113 2 217 195q104 190 105 463q0 164 -27 280.5t-80 200.5q-104 166 -258 166q-20 0 -27 -17q-78 -197 -172 -348q-6 -12 -16 -12q-8 2 -8 16q4 190 47 342q45 152 100 250q53 100 115 168q41 49 96 99 q27 0 39 30q2 8 2 21q0 51 -41 51q-90 0 -186 -105q-94 -106 -172 -264q-78 -168 -121 -344q-23 -86 -33 -168t-10 -180zM188 555q0 164 60 295q61 139 147 139t148 -129q61 -129 61 -305q0 -180 -61 -309q-62 -129 -148 -129t-147 170q-59 168 -60 268z" />
<glyph unicode="7" horiz-adv-x="712" d="M-8 1458q0 -14 4 -20q6 -25 24 -25q45 0 66 82q37 117 170 133q39 8 111 8q49 0 118 -12q25 0 25 -31q0 -6 -2 -18l-2 -4q-53 -195 -193 -684l-20 -70q-109 -375 -174 -768v-4q-2 -4 -2 -6q0 -8 4 -25q2 -16 16 -16q37 10 70 10q31 0 67 -10q2 0 7 -2h4q25 0 30 53 q49 475 146 924q100 461 205 854q2 12 2 26q0 29 -21 29q-16 0 -22 -4q-39 -4 -117 -4q-18 0 -57 2t-60 2q-41 4 -123 10q-78 8 -112 10h-2h-4q-18 0 -39 -22q-23 -27 -29 -59q-14 -94 -35 -162q-20 -80 -49 -160q-6 -12 -6 -37z" />
<glyph unicode="8" horiz-adv-x="753" d="M-4 555q0 -262 104 -410q102 -147 248 -147q147 0 258 172q113 170 113 401q0 184 -53 326q-51 150 -142 229q-25 23 -24 37q0 8 2 8q12 12 26 37q45 68 70 133q31 72 31 162q0 152 -80 273q-80 118 -199 118q-117 0 -200 -122q-84 -125 -84 -291q4 -147 24 -226 q25 -74 49 -110q27 -39 41 -49q6 -2 6 -15q0 -6 -6 -18q-70 -96 -127 -221q-57 -131 -57 -287zM141 563q0 141 39 283q43 166 105 166q6 0 43 -21q6 -6 14 -10q43 -31 98 -100q45 -59 88 -158q33 -78 33 -205q-12 -231 -72 -313q-57 -82 -137 -92q-86 0 -141 116 q-66 133 -68 289v23q-2 18 -2 22zM199 1528q0 106 45 182q43 72 104 72q47 -4 103 -76q51 -72 51 -178q0 -113 -23 -193q-25 -86 -65 -98q-49 0 -133 92q-82 90 -82 199z" />
<glyph unicode="9" horiz-adv-x="753" d="M-12 1280q0 -6 2 -33v-35q0 -319 119 -477q125 -168 245 -168q20 0 27 17q14 94 37 143q23 51 76 125q6 12 18 12q8 -2 8 -14q-8 -156 -55 -281q-45 -121 -107 -219q-59 -98 -116 -157q-33 -35 -74 -74l-23 -23h-2q-33 -18 -37 -30q-4 -8 -4 -21q0 -49 41 -49 q90 0 193 102q104 106 188 264q88 160 140 345q25 86 37 170t12 178q0 428 -101 628q-102 211 -284 213q-109 0 -232 -190q-109 -174 -108 -426zM125 1389q0 139 47 233q53 104 133 104q25 0 39 -6q109 -29 145 -196q41 -186 43 -264q4 -33 9 -99q0 -2 2 -14v-14 q0 -16 -4 -41q0 -4 -2 -15q-14 -55 -74 -121q-57 -63 -121 -69q-174 0 -211 399q-6 55 -6 103z" />
<glyph unicode=":" horiz-adv-x="169" d="M-2 139q0 -57 25 -98q23 -41 57 -41q33 0 57 41q25 41 25 98q0 59 -25 99q-24 41 -57 41q-35 0 -57 -41q-25 -39 -25 -99zM-2 1022q0 -57 25 -98q23 -41 57 -41q33 0 57 41q25 41 25 98q0 55 -25 98q-24 41 -57 41q-35 0 -57 -41q-25 -43 -25 -98z" />
<glyph unicode=";" horiz-adv-x="202" d="M0 137q0 -59 27 -98q29 -41 67 -41q6 -6 17 -18q6 -12 6 -25q0 -18 -15 -72q-12 -41 -12 -53q0 -4 2 -4q22 0 53 57q20 39 33 109q10 57 10 102v21q-2 16 -2 20q-12 141 -92 141q-39 0 -67 -40q-27 -39 -27 -99zM0 1018q0 -59 27 -98q29 -41 67 -41q41 0 66 41 q29 37 28 98q0 57 -28 98q-25 41 -66 41q-39 0 -67 -41q-27 -39 -27 -98z" />
<glyph unicode="=" d="M0 418h522v57h-522v-57zM0 629h522v57h-522v-57z" />
<glyph unicode="?" horiz-adv-x="686" d="M0 1530q0 -82 31 -141t75 -60q45 0 76 60q31 59 31 141q0 74 -23 121q31 43 84 65q12 4 35 4q31 0 60 -22q41 -35 69 -142q18 -74 19 -196q0 -70 -4 -109q-12 -231 -56 -303q-45 -68 -94 -114q-49 -49 -82 -129q-29 -66 -28 -250q0 -6 2 -43v-52q35 39 45 43q6 0 49 -38 q0 266 51 325q53 63 111 86q61 23 118 107q57 78 72 383q0 6 2 32v33q0 217 -72 377q-82 178 -237 178q-16 8 -51 8q-70 0 -162 -69q-121 -98 -121 -295zM156 154q0 -61 24 -109q25 -45 58 -45q35 0 59 45q25 47 25 109q0 63 -25 108q-26 45 -59 45q-31 0 -58 -45 q-25 -45 -24 -108z" />
<glyph unicode="@" horiz-adv-x="813" d="M-2 856q0 -350 113 -604q111 -252 268 -252q78 0 147 68q70 66 121 182q-88 0 -139 -57q-49 -57 -129 -58q-131 0 -209 213q-78 215 -78 508t78 508q76 211 209 211t215 -211q80 -211 80 -508q0 -150 -25 -283q-2 -2 -2 -4v-6q0 -2 -2 -8q0 -6 -2 -8h2q-18 -109 -41 -109 q-14 0 -26 43q-12 53 -13 105v51v27q-2 16 -2 30q2 88 2 205q2 47 2 105q0 14 2 28v21q0 14 -2 18q-49 53 -102 78q-55 23 -100 22q-90 0 -181 -114q-2 -4 -2 -15q0 -14 11 -30q12 -20 20 -21q6 0 8 6q53 86 139 86q25 -2 60 -12q35 -8 43 -37q8 -25 8 -53q0 -47 -31 -47 q-12 0 -18 2t-19 2q-104 0 -182 -59q-76 -57 -76 -265q0 -160 86 -213q35 -27 80 -26q51 0 99 33q23 14 45 14q18 0 32 -12q27 -25 50 -39q25 -39 69 -56q43 0 78 66q33 61 51 154q23 90 31 180q8 80 8 141q0 354 -119 604q-121 250 -276 250q-158 0 -268 -250 q-113 -256 -113 -604zM260 641q0 96 41 164q41 70 145 72q2 0 5 -3l12 -6q8 -8 8 -41q-2 -8 -2 -39q-2 -31 -2 -40q0 -51 -2 -74v-60q-4 -66 -19 -79q-4 -8 -8 -13q-6 -8 -12 -12q-41 -39 -76 -39q-29 0 -45 23q-45 51 -45 147z" />
<glyph unicode="A" horiz-adv-x="1079" d="M41 20q0 -18 20 -18q57 10 119 14q57 0 115 -14q18 0 24 29q4 14 5 35q0 23 -9 22q-14 6 -28 25q-14 16 -21 71q0 59 27 199q6 29 18 29h422q18 -2 25 -45q24 -120 24 -173q0 -55 -8 -71q-8 -18 -18 -31q-12 -12 -13 -63q2 -12 19 -23q8 -4 24 -4q53 10 113 14 q51 0 121 -14q8 0 14 18q4 16 4 25v8q-12 59 -22 60q-12 0 -31 47q-20 43 -65 215q-45 174 -121 557l-6 16l-181 875q-12 43 -20 43q-6 -2 -29 -2q-16 0 -22 -2h-23q-55 0 -106 2q-70 0 -111 8q-10 0 -12 -17q-2 -6 -2 -16q0 -4 2 -8v-6q6 -74 84 -84q76 -8 82 -123 q0 -94 -41 -232q-45 -160 -111 -473q-98 -420 -137 -557q-51 -176 -72 -215q-20 -47 -31 -47q-8 0 -20 -53q-2 -10 -2 -21zM334 588q0 29 2 39q8 51 29 135q16 78 36 158q16 78 48 210l12 50q12 59 33 149q12 59 18 86q6 23 12 23t17 -23v-2q49 -193 104 -500q8 -41 21 -90 l14 -65q4 -20 14 -64q8 -41 15 -69q2 -6 2 -35q-1 -25 -15 -25h-350q-12 0 -12 23z" />
<glyph unicode="B" horiz-adv-x="1024" d="M2 18q0 -24 19 -24h2l12 2q72 10 102 10h58q6 0 28 -2q15 0 29 -2h2h6h8q8 -2 41 -2q70 0 168 -4q49 0 81 4t58 12q221 74 289 260q68 178 70 359q-2 231 -76 362q-76 129 -203 195q-6 4 -6 26q2 16 12 23q160 102 160 287q0 37 -16 112q-16 76 -80 140q-66 63 -199 100 q-57 16 -153 16q-88 0 -209 -18h-37q-12 2 -37 2q-55 0 -111 12q-18 0 -18 -28q0 -59 16 -64q18 -6 33 -67q16 -59 27 -240q8 -106 8 -350v-103q-2 -66 -2 -123q-2 -391 -18 -561q-12 -156 -27 -223q-12 -55 -25 -55q-8 0 -12 -56zM219 1352q4 119 14 260q6 84 13 121 q6 45 28 45q272 -6 340 -62q68 -51 68 -186q0 -156 -102 -211q-51 -27 -127 -40t-193 -13q-39 0 -39 37q-2 24 -2 49zM225 924q0 76 2 112q2 37 2 105q0 24 25 24h2l18 -2q45 -6 66 -8h80q127 -25 198 -78q72 -51 109 -119q35 -68 43 -147q8 -72 8 -158q-10 -145 -22 -213 q-16 -96 -62 -164q-43 -66 -135 -110q-86 -39 -244 -51q-29 0 -36 14q-12 25 -21 76q-14 76 -25 241q-4 82 -6 181.5t-2 296.5z" />
<glyph unicode="C" horiz-adv-x="1058" d="M-2 940q0 -383 154 -661q156 -272 372 -273q84 0 209 43q121 41 191 123q33 25 32 57q0 53 19 185q16 115 29 178q0 4 2 8v4q0 16 -7 25q-10 16 -20 16h-4q-27 0 -33 -53l-4 -33q-51 -162 -154 -280q-102 -127 -190 -127q-141 0 -272 223q-135 221 -136 553 q0 328 109 567q109 238 250 238q2 0 14 2h12q98 0 199 -88q111 -98 172 -271q12 -53 31 -53h12q12 0 16 23q0 18 -2 38v13q-35 115 -45 221q-8 45 -14 65q-8 27 -39 48q-104 98 -192 120q-88 20 -185 21q-92 0 -188 -74q-90 -72 -168 -203q-80 -135 -123 -295 q-47 -172 -47 -360z" />
<glyph unicode="D" horiz-adv-x="1003" d="M2 31q0 -29 18 -29q14 4 56 4q18 -2 55 -2h27q10 -2 35 -2q6 0 45 6q6 0 12 2q35 4 37 6q279 43 475 332q195 291 194 651q-6 272 -65 449q-57 170 -154 264q-94 90 -215 125q-123 35 -250 37q-2 2 -6 2q-47 0 -55 -4q-20 -4 -49 -4h-62q-37 0 -63 8q-20 0 -21 -31 q4 -57 15 -59q12 -4 20 -66q12 -57 19 -233l2 -43q4 -147 4 -246q0 -45 -2 -123q-2 -113 -2 -162q-2 -377 -17 -559q-12 -154 -22 -217q-16 -51 -23 -51q-8 0 -8 -55zM219 924q2 254 10 462q3 148 15 252q0 27 6 66q6 35 35 35q184 -8 333 -150q145 -137 154 -592 q0 -303 -147 -553q-152 -248 -363 -280q-14 0 -18 16q-2 8 -2 15q0 12 -2 14q-8 66 -15 242q-4 59 -5 152t-1 321z" />
<glyph unicode="E" horiz-adv-x="970" d="M2 31q0 -29 18 -29q59 12 115 12h17q49 -2 100 -2q57 0 201 -4h12q68 0 225 -2q35 -2 76 -2q14 0 25 21q4 8 12 22q8 16 12 27q25 63 47 114q10 23 27 50q6 8 14 24l15 25q6 12 6 55q0 41 -25 41q-12 0 -47 -37q-31 -35 -53 -53q-76 -88 -226 -123q-133 -31 -219 -31 q-2 0 -22 2h-25q-51 4 -69 101q-18 78 -19 239v447q0 70 2 102q0 63 2 90q0 31 15 31h264q66 -2 145 -12q76 -8 98 -113q8 -51 27 -51h2q29 0 29 39v4q-2 4 -2 8q-10 117 -10 205q0 84 10 190q0 4 2 11v6q0 33 -25 32h-2q-10 0 -16 -14q-2 -10 -10 -29l-5 -6 q-47 -82 -104 -112q-61 -31 -160 -31h-231q-25 0 -25 37q2 43 4 78q4 82 7 116q2 43 6 93q2 31 2 38v7q8 47 16 69q12 39 49 39q49 -4 109 -4q78 -4 149 -14q78 -12 152 -41q72 -29 112 -84q25 -51 58 -51h10q12 0 19 12q2 4 2 10q0 10 -7 23q-31 59 -55 116l-12 29 q-31 61 -45 90q-6 14 -29 29q-20 12 -33 12h-10q-8 0 -8 -4q-164 0 -293 -8q-131 -8 -291 -8q-61 0 -117 14q-18 0 -18 -31q0 -57 14 -57q18 -4 33 -62q18 -68 27 -233q8 -98 8 -315v-115q-2 -74 -2 -141q-6 -395 -19 -562q-16 -176 -28 -221q-12 -53 -23 -53q-10 0 -10 -55 z" />
<glyph unicode="F" horiz-adv-x="911" d="M2 1845q0 -57 14 -57q18 -4 33 -62q18 -68 27 -233q8 -106 8 -348v-101q-2 -66 -2 -122v-43q-2 -14 -2 -41q-6 -336 -17 -510q-8 -135 -20 -197q-12 -45 -18 -45q-10 0 -11 -55q0 -29 21 -29q55 10 117 14q18 0 63 -8q14 -4 47 -10q10 -2 17 -4q18 0 18 29q0 51 -10 57 q-8 6 -21 37q-10 23 -24 127q-11 75 -17 323q0 102 -2 158q-2 39 -2 188q0 70 2 105v88q0 33 15 33l200 -6q43 0 137 -13h7q78 -12 100 -114q8 -51 27 -52h2q29 0 28 37v6q-2 4 -2 9q-10 117 -10 204q0 90 10 193q0 6 2 10v6q0 35 -24 35h-2q-12 0 -17 -18l-2 -6 q-6 -18 -12 -27q-45 -80 -107 -113q-55 -30 -153 -30h-6l-166 4q-25 0 -25 39q2 45 4 88q4 80 7 112q2 45 6 103l2 34v7q8 47 16 69q12 39 51 39q35 -2 99 -6q74 -8 131 -20q70 -16 131 -46q66 -35 102 -86q25 -49 60 -49h10q10 0 16 13q2 2 2 12q0 12 -4 20q-20 37 -57 115 q-23 57 -56 119q-10 20 -30 28q-18 12 -33 13h-8q-8 0 -10 -2h-146q-104 -2 -119 -2q-78 -2 -262 -2q-59 0 -117 14q-18 0 -18 -31z" />
<glyph unicode="G" horiz-adv-x="1081" d="M-2 940q0 -383 154 -661q156 -272 372 -273q90 0 213 64q129 63 199 141q31 41 31 61l-2 7q-2 6 -7 30q-2 6 -8 29q0 248 2 366.5t6 196.5q10 164 25 209q12 43 29 43q16 0 18 61q0 12 -10 23q-4 6 -16 6l-41 -4l-21 -2q-20 -2 -59 -2h-62q-31 0 -61 6q-23 0 -23 -24 q4 -51 13 -56q12 -6 24 -41q14 -41 23 -145q10 -99 14 -363q-2 -92 -4 -169.5t-2 -129.5q0 -61 -51 -98q-43 -31 -74 -43q-27 -10 -86 -20q-139 0 -277 213q-66 102 -98.5 240t-32.5 323v33q-2 27 -2 30q0 309 95 520q102 225 241 226q2 0 19 2h22q92 0 162 -49 q92 -61 197 -232q12 -55 34 -55h11q14 0 16 24v17q0 23 -2 35q-27 76 -37 143q-12 61 -41 109q-104 98 -192 120q-88 20 -185 21q-186 0 -356 -250q-170 -254 -170 -682z" />
<glyph unicode="H" horiz-adv-x="978" d="M2 31q0 -29 18 -29q63 14 117 14q59 0 117 -14q18 0 18 29q0 59 -10 63q-14 0 -26 56q-14 61 -23 219q-8 106 -8 356q0 12 2 92v107v102v94q0 4 2 15q2 4 2 8q0 14 18 14q43 0 125 -4q41 -2 127 -2q72 0 109 2q35 0 108 4q23 0 23 -14v-25v-205q-6 -369 -16 -555 q-8 -143 -21 -219q-10 -53 -16 -53q-8 0 -9 -55q0 -29 19 -29q59 14 117 14q57 0 116 -14q20 0 21 29q0 61 -12 63q-12 0 -25 56q-16 70 -25 219q-8 109 -8 366q0 12 2 86v101q0 360 13 589q12 170 24 224q10 47 21 47q10 0 10 61q0 31 -21 31q-57 -14 -116 -14 q-53 0 -117 14q-18 0 -19 -31q0 -47 13 -53q10 -6 22 -37q10 -25 21 -115q4 -29 5 -83t1 -201q0 -53 -19 -54q-37 0 -110 5q-37 2 -111 2q-84 0 -125 -4q-82 -5 -123 -5q-20 0 -20 43q0 211 10 308q8 78 21 110q14 27 20 27q8 2 8 59q0 31 -18 31q-57 -14 -117 -14 q-61 0 -117 14q-18 0 -18 -31q0 -55 12 -59q12 -2 25 -66q10 -51 20 -233q6 -106 7 -301v-121q-2 -80 -3 -152q-6 -369 -16 -555q-8 -147 -20 -217q-10 -53 -17 -53q-8 0 -8 -57z" />
<glyph unicode="I" horiz-adv-x="286" d="M2 31q0 -29 18 -29q51 10 117 14q59 0 117 -14q18 0 18 29q0 61 -10 61q-14 0 -26 53q-14 57 -23 220q-8 106 -8 358q0 12 2 92v109q0 358 12 587q12 170 25 224q10 47 20 47q8 0 8 63q0 31 -18 31q-57 -14 -117 -14q-62 0 -117 14q-18 0 -18 -31q0 -55 12 -59 q12 -2 25 -66q10 -51 20 -233q6 -106 7 -301v-121q-2 -80 -3 -152q-6 -367 -16 -559q-8 -147 -20 -217q-10 -51 -17 -51q-8 0 -8 -55z" />
<glyph unicode="J" horiz-adv-x="333" d="M-178 -383q0 -27 10 -47q10 -16 27 -16q49 16 94 51q33 27 94 84q49 49 100 127q49 80 115 145q6 0 19 27q10 18 10 73q-6 98 -12 113q-4 10 -9 49q0 2 -2 19q-4 41 -8 192q-4 78 -8 352l-2 138q-6 141 -6 364q0 141 6 223q10 180 24 224q12 47 29 47q14 0 14 63 q0 31 -20 31q-57 -14 -117 -14t-117 14q-27 0 -26 -31q4 -55 16 -59q10 -2 27 -66q14 -63 22 -233q6 -74 7 -322v-112q-2 -74 -3 -140q0 -31 -2 -118q-4 -307 -10 -408q-8 -180 -18 -262q-8 -78 -17 -107q-4 -12 -10 -38q-2 -10 -2 -15q-35 -102 -90 -174q-55 -70 -98 -100 q-18 -10 -27 -25q-10 -20 -10 -49z" />
<glyph unicode="K" horiz-adv-x="962" d="M2 31q0 -29 18 -29q63 14 117 14q59 0 117 -14q12 0 18 4q12 6 13 21q-2 53 -13 53q-12 0 -24 26q-14 29 -25 123q-10 106 -10 336q0 72 6 80q8 20 33 62q18 29 39 73q23 43 45 76q2 2 4 6q6 8 12 19q0 2 6 2q10 0 25 -35q129 -322 180 -483q45 -137 45 -195 q-2 -53 -24 -64q-23 -8 -23 -79q2 -14 23 -21q8 -4 26 -4q18 4 82 4h86q37 0 53 -2q18 0 41 2h15q8 16 8 35q0 16 -2 25q-16 55 -31 55q-12 0 -37 41q-31 55 -92 207q-78 193 -196 555q-12 37 -19 57q-12 37 -18 53q-6 12 -17 53q-2 6 -2 17q0 31 25 74q168 313 233 421 l21 31q61 96 78 113q23 27 30 26l2 -4q10 0 37 56q4 4 4 12q0 14 -6 22q-8 18 -18 19q-23 -4 -68 -8q-25 -2 -63 -2q-45 0 -78 2q-55 4 -74 10q-18 0 -37 -31q-6 -20 -6 -35q0 -31 23 -30q32 -6 32 -68q0 -63 -71 -248q-76 -186 -303 -583q-18 -33 -25 -33l-4 2v2 q-6 14 -6 27v45q-2 106 -2 282q0 207 6 320q10 178 27 227q12 45 28 45t19 55q0 18 -11 19q-8 4 -20 4q-66 -14 -117 -14q-61 0 -117 14q-18 0 -18 -31q0 -55 14 -59q12 -2 25 -66q12 -47 22 -233q6 -74 7 -316v-112q-2 -76 -2 -146q-6 -367 -17 -559q-12 -154 -22 -217 q-10 -51 -19 -51q-8 -16 -8 -55z" />
<glyph unicode="L" horiz-adv-x="917" d="M8 31q0 -29 21 -29q55 10 108 14h27q16 -2 33 -2q117 -8 256 -8q82 -2 252 -2q37 6 55 70q4 14 10 30t10 31q4 14 11 31q6 16 10 31q10 29 33 69q20 31 32 70q4 8 4 39v26q-2 25 -20 25h-10q-41 0 -70 -74q-14 -43 -115 -127q-98 -86 -211 -90h-63h-66q-39 0 -49 19 q-10 20 -16 61q-10 57 -17 240q-4 72 -4 280q0 10 2 86v103q0 403 17 587q12 176 26 224q12 47 27 47q10 0 10 63q0 14 -12 23q-10 8 -20 8q-35 -8 -72 -10q-27 -4 -70 -4h-47q-6 2 -12 2q-25 4 -37 6q-2 0 -4 2q-14 0 -14 -31q4 -57 14 -59t22 -62q10 -55 21 -233 q4 -143 4 -301v-121q-2 -80 -2 -152q-6 -428 -16 -559q-12 -164 -25 -217q-12 -51 -23 -51q-10 0 -10 -55z" />
<glyph unicode="M" horiz-adv-x="1214" d="M-59 1839q8 -59 30 -78q14 -12 47 -28q27 -12 50 -39q25 -29 38 -113q6 -37 9.5 -92t3.5 -141v-435q0 -219 -3 -354t-10 -213q-12 -160 -28 -217q-18 -49 -31 -49q-16 0 -16 -53q0 -29 26 -29q29 4 68 6h68q31 0 36 -2q4 -2 21 -4q2 -2 14 -4q20 0 21 29q0 61 -13 63 q-12 2 -30 57q-14 53 -27 224q-10 139 -10 381q0 12 2 81v95v182q0 164 4 223q0 35 6 47q6 0 25 -49q23 -80 80 -262q16 -55 59 -195l41 -135l16 -51q51 -162 74 -240q16 -49 35 -108q6 -27 8 -31q10 -23 14 -22q6 0 17 28l159 572q106 381 162 573q6 20 13 21l4 -4 q8 -6 8 -23q-2 -72 -6 -172l-4 -66q-8 -176 -9 -299q0 -225 -1 -368.5t-5 -216.5q-8 -156 -20 -215q-2 -4 -2 -7q-10 -33 -17 -32l-4 2l-4 4q-8 0 -8 -49q0 -29 20 -29q55 10 117 14q55 0 115 -14q23 0 22 29q0 57 -12 57t-22 47q-14 59 -23 219q-10 139 -10 570 q0 233 3 372.5t11 219.5q16 176 35 219q12 41 29 41l4 -2q16 0 16 57q0 31 -12 31q-23 -6 -78 -11q-33 0 -49.5 2t-28.5 9q-10 4 -24 4t-21 -11q-90 -246 -174 -544q-78 -276 -164 -553q-2 -12 -8 -13q-2 0 -6 11q-84 252 -166 532q-80 260 -172 531q-6 27 -14 34 q-2 4 -14.5 4.5t-53.5 0.5q-63 -4 -80 -9q-37 0 -65 6q-18 2 -47 11l-19 4q-20 0 -20 -31z" />
<glyph unicode="N" horiz-adv-x="991" d="M-84 1862q8 -63 33 -80q23 -12 51 -27q25 -10 53 -37q25 -25 41 -112q10 -57 10 -146v-47q-2 -29 -2 -53q-2 -70 -4 -179.5t-2 -273.5q0 -215 -3 -350t-9 -213q-16 -172 -33 -217q-14 -47 -31 -47q-18 0 -18 -53q0 -29 27 -29q18 2 67 6h68q35 0 43 -2q2 0 16 -4 q12 -2 25 -4q20 0 20 29q-2 74 -20 73q-20 0 -35 39q-16 41 -27 205q-6 59 -6 254q0 199 2 324q0 41 2 106q2 84 2 125q4 180 7 268q4 35 8 47q8 0 22 -49q27 -84 105 -285q35 -96 127 -325l34 -90q29 -72 52 -127l112 -287q70 -176 111 -272v-17h2q2 0 2 2h2q6 -16 8 -22 q8 -20 27 -21q4 0 12 2q4 2 6 2q12 6 20.5 16.5t10.5 14.5q-4 94 -4 193q0 168 2 258v260q2 55 2 100q2 78 2 101q0 399 14 604q16 184 29 223q12 45 29 45q14 0 14 59q0 33 -18 33q-20 -6 -54 -14q-20 -6 -49 -6q-61 0 -119 14q-18 0 -18 -31q0 -55 18 -55q14 0 33 -55 q16 -59 29 -234q8 -106 8 -340v-112q-2 -72 -2 -136v-174v-12q-4 -96 -4 -135q0 -66 -12 -66q-2 4 -4 9q-18 29 -29 65q-51 139 -117 307q-35 90 -65 168q-31 76 -66 166q-18 47 -20 53q-76 197 -105 265q-43 113 -94 260q-6 27 -14 34q-6 6 -58 13h-8q-12 0 -29 2h-20 q-8 0 -19 -2h-12q-35 0 -78 8q-37 6 -73 14l-6 2q-20 0 -21 -28z" />
<glyph unicode="O" horiz-adv-x="1101" d="M-2 940q0 -383 154 -661q156 -272 372 -273q215 0 371 273q154 274 154 661q0 195 -45 360q-49 170 -123 295q-76 127 -170 203q-95 74 -187 74t-188 -74q-90 -72 -168 -203q-80 -135 -123 -295q-47 -172 -47 -360zM186 928q0 332 99 567q102 238 239 238q139 0 244 -213 q49 -100 72.5 -245t23.5 -347q-6 -375 -102 -590q-98 -211 -238 -211q-139 0 -239 235q-98 233 -99 566z" />
<glyph unicode="P" horiz-adv-x="905" d="M2 31q0 -29 18 -29q51 10 117 14q59 0 117 -14q18 0 18 29q0 47 -4 53q-8 12 -14 22q-10 12 -18 52q-10 37 -19 137v27q0 47 21 59q25 14 65 31q258 109 408 329q152 225 151 465q0 274 -80 412q-82 145 -190 199q-115 57 -238 57q-125 -2 -217 -12q-62 0 -117 14 q-18 0 -18 -31q0 -55 12 -59q12 -2 25 -66q10 -51 20 -233q6 -106 7 -301v-121q-2 -80 -3 -152q-2 -395 -12 -561q-8 -164 -18 -217q-10 -51 -21 -51q-10 0 -10 -53zM207 735v189q0 322 10 512q8 137 16 250q2 23 13 45q6 16 39 16q252 -27 325 -188q70 -160 70 -367 q0 -195 -135 -385q-131 -188 -289 -283q-8 -6 -18 -6t-15 12q-10 25 -10 52q-2 72 -6 153z" />
<glyph unicode="Q" horiz-adv-x="1101" d="M-2 940q0 -225 55 -426q55 -195 148 -321q31 -43 67 -84l2 -3q53 -57 84 -83q6 0 6 -11q0 -10 -6 -20q-2 -6 -14 -37q-12 -29 -31 -68q-12 -20 -35 -63q-10 -23 -16 -33q-18 -35 -18 -47q0 -6 2 -8q6 -4 10 -31q0 -16 14 -16q4 0 8 2q8 2 13 2q29 55 102 55 q76 -4 152 -27q53 -16 151 -53q4 -2 10 -4q57 -18 74 -18h6l6 2l3 2q20 18 40 41q14 14 35 37q33 39 45 51q41 49 76 88q23 27 31 43q0 14 -2 45q0 43 -31 43q-78 -100 -217 -113q-92 0 -163.5 12.5t-145.5 39.5q-16 6 -21 18v12q-2 6 -2 15q0 31 27 30q2 0 4 -2q4 -2 6 -2 h27q20 -2 24 -2q215 0 371 273q154 274 154 661q0 195 -45 360q-49 170 -123 295q-76 127 -170 203q-94 74 -187 74q-92 0 -188 -74q-90 -72 -168 -203q-80 -135 -123 -295q-47 -172 -47 -360zM186 928q0 332 99 567q102 238 239 238q139 0 244 -213q49 -100 72.5 -245 t23.5 -347q-6 -375 -102 -590q-98 -211 -238 -211q-139 0 -239 235q-98 233 -99 566z" />
<glyph unicode="R" horiz-adv-x="919" d="M2 31q0 -29 18 -29q51 10 117 14q59 0 117 -14q18 0 18 29q0 47 -4 53q-8 12 -14 22q-10 12 -18 52q-10 37 -19 137v27q0 49 23 59q18 10 63 31q8 4 14 6q16 8 21 10l6 2l27 12q35 14 57 15q18 0 59 -97q59 -145 72 -188q10 -31 10 -66q-2 -14 -16 -24q-8 -8 -8 -37v-27 q6 -12 33 -16h34q57 14 111 14q6 0 18 -4q31 -6 47 -6q23 0 64 12q14 0 14 9q0 4 -4 20q-20 53 -31 55q-8 0 -34 27q-27 29 -68 113q-45 84 -131 305q-6 16 -6 28q0 20 16 37q10 12 31 37q14 16 27 31q92 113 153 252q57 139 58 274q0 274 -80 412q-86 145 -197 199 q-119 57 -242 57q-129 -2 -221 -12q-61 0 -117 14q-18 0 -18 -31q0 -55 12 -59q12 -2 25 -66q10 -51 20 -233q6 -106 7 -301v-121q-2 -80 -3 -152q-2 -395 -12 -561q-8 -164 -18 -217q-10 -51 -21 -51q-10 0 -10 -53zM207 735v189q0 322 10 512q8 137 16 250q2 23 13 45 q6 16 39 16q143 -16 221 -64q76 -47 119 -124q39 -80 47 -170q8 -84 8 -197q0 -195 -135 -385q-131 -188 -289 -283q-8 -4 -18 -4q-12 0 -15 12q-10 20 -10 50q-2 72 -6 153z" />
<glyph unicode="S" horiz-adv-x="899" d="M4 375q0 -82 29 -99q70 -115 180 -192q109 -82 246 -82q145 0 270 180q123 172 123 471q-2 209 -55 328q-51 117 -129 190q-74 68 -168 115q-84 41 -172 103q-37 27 -82 79q-43 49 -43 107q0 80 45 127q39 51 104 51q8 4 25 4q66 0 155 -100q107 -119 136 -256 q12 -66 43 -66q14 0 22 21q6 12 6 24q0 4 -2 13v8q-20 86 -28 133q-16 90 -23 135q-8 70 -41 70q-12 4 -16 4l-6 2q-4 2 -7 2q-96 115 -237 139v-2q-125 -2 -211 -82q-82 -80 -92 -311q0 -111 49 -197q49 -90 113 -149q78 -72 151 -107q72 -37 158 -92q66 -45 117 -149 q47 -96 47 -236q0 -170 -84 -291q-79 -114 -149 -114h-1l4 2q-10 -2 -12 -2q-90 0 -154.5 41t-113.5 125q-102 176 -121 333q-2 92 -33 93q-33 0 -33 -97q0 -49 -4 -139q-6 -70 -6 -137z" />
<glyph unicode="T" horiz-adv-x="1005" d="M0 1518q0 -8 4 -29q8 -29 27 -29h2q43 0 63 70q29 88 117 147q88 61 145 76q4 0 9 2h6q10 0 10 -4q0 -2 2 -18q0 -6 2 -31q8 -113 10 -277q0 -236 -2 -411v-101q-10 -414 -20 -557q-12 -170 -27 -217q-12 -53 -22 -53t-11 -55q0 -29 21 -29q10 2 37 6q16 2 28 4h7 q41 4 61 4q61 0 125 -14q18 0 18 29q0 61 -10 63q-10 0 -27 56q-16 70 -24 219q-12 166 -12 555q0 383 4 506q6 184 12 276q2 20 4 37l2 8q0 4 8 4h6q6 -2 11 -2q55 -12 141 -63q90 -55 123 -154q18 -76 68 -76q16 0 28 27q8 16 8 29q0 6 -4 16q-2 6 -2 8q-18 51 -59 148 q-35 76 -51 153q-8 51 -54 51q-39 -2 -82 -6q-145 -10 -208 -14q-37 -4 -117 -4q-113 0 -219 14h-2q0 2 -2 2h-35q-18 0 -31 -76q-8 -47 -37 -127t-47 -137q-4 -10 -4 -26z" />
<glyph unicode="U" horiz-adv-x="962" d="M-2 1853q4 -59 16 -59q10 -4 23 -63q10 -51 20 -234q0 -20 2 -43q4 -160 4 -260q0 -43 -2 -119q-2 -106 -2 -153v-101q-2 -74 -2 -84v-12q-4 -100 -4 -141v-39v-37q4 -311 62 -416q53 -96 147 -96q94 10 199 84q102 70 213 119q10 6 18 6q0 -18 -2 -33q-14 -88 -28 -88 q-16 0 -17 -57q0 -29 21 -29q76 14 116 14q41 0 117 -14q18 0 19 29q0 61 -11 61q-14 0 -26 53q-14 57 -23 219q-4 66 -6 191t-2 369q4 432 14 587q8 166 23 224q10 47 20 47t11 63q0 31 -13 31q-4 -2 -6 -2q-76 -14 -117 -15q-45 0 -116 15q-2 0 -4 2h-3q-14 0 -14 -31 q4 -57 14 -59q8 -2 25 -66q10 -55 21 -233q4 -68 4 -283v-127q-2 -102 -2 -166v-86q-2 -92 -2 -188q2 -80 2 -205q0 -61 -68 -98q-78 -47 -150 -78q-72 -35 -137 -41q-82 0 -108 39q-33 43 -37 348h-2q-2 45 -2 150q0 117 2 184q0 389 14 586q16 180 29 219q12 43 26 43 q10 0 11 61q0 14 -13 29q-14 14 -22 14q-55 -14 -117 -14q-51 0 -117 14q-18 0 -18 -31z" />
<glyph unicode="V" horiz-adv-x="1005" d="M-8 1870q0 -10 2 -21q12 -53 26 -53q12 0 33 -55q27 -63 72 -240q51 -205 133 -614l16 -80q43 -217 62 -320q43 -211 74 -397q16 -104 53 -104q31 0 55 104q2 18 12 57q8 51 25 125q6 33 20 101q6 23 7 24q10 60 12 60q10 57 41 190l4 17q23 94 57 276q76 383 121 571 q41 166 62 215q23 49 32 50q12 0 35 71q4 6 4 19q0 12 -18 12q-27 -8 -55 -8q-18 -2 -56 -2h-67q-43 0 -68 8q-25 0 -24 -31q-2 -8 -3 -24q0 -29 15 -29q20 0 31 -53q4 -12 4 -51q0 -33 -9 -129l-4 -50q-23 -180 -104 -585q-27 -119 -41 -199q-6 -39 -19 -92q-8 -41 -14 -76 q-12 -55 -22 -55q-6 10 -19 61q-4 25 -10 51q-14 66 -21 103l-12 61q-18 90 -26 127q-92 408 -121 606q-18 129 -19 191q0 8 2 22v13q6 43 29 43q12 0 12 26q0 23 -2 39q-6 31 -26 31q-27 -6 -78 -6q-33 -2 -78 -2q-57 0 -121 14q-14 0 -14 -12z" />
<glyph unicode="W" horiz-adv-x="1347" d="M2 1870q2 -4 2 -8q29 -86 41 -86q10 0 27 -41q16 -49 53 -222q37 -174 117 -626l12 -68q45 -223 63 -330q25 -129 70 -395q14 -102 59 -102q25 0 43 55h-2q31 264 68 528q45 340 63 527q4 23 9 31l2 2q6 0 12 -31q18 -123 39 -256q20 -135 39 -258q18 -115 39 -258 q20 -143 39 -258q16 -78 55 -78q33 2 53 102q4 35 19 115q4 37 8 59q8 57 18 119q8 49 8 58q4 23 15 79q18 98 24 129q12 76 47 258l5 25q80 406 116 571q41 180 54 215q12 49 24 50q6 0 31 71q2 6 2 19q0 12 -19 12q-25 -8 -55 -8q-18 -2 -55 -2q-61 0 -107 14 q-20 0 -24 -33q0 -4 -2 -12v-10q0 -35 16 -35q18 0 29 -59q4 -14 4 -52q0 -74 -14 -186q-16 -164 -103 -588q-20 -92 -28 -159q-6 -29 -15 -82q-6 -33 -10 -58q-6 -33 -10 -33l-2 3q-10 14 -11 30q-23 143 -59 391q-16 119 -27 185q-47 313 -77 579q-6 57 -21 95 q-12 38 -32 38h-1q-25 0 -37 -43q-14 -47 -16 -98q-23 -262 -59 -545q-43 -332 -74 -553q-6 -47 -14 -47q-4 0 -15 43l-18 111q-12 78 -27 141q-90 444 -108 617q-16 113 -17 192q0 12 2 29v14q6 51 27 51q10 0 10 23q0 12 -4 45q0 12 -4 12l-4 -2q-8 -8 -12 -10 q-16 -4 -78 -4h-78q-29 0 -53 6q-18 6 -56 14q-16 0 -16 -16v-6z" />
<glyph unicode="X" horiz-adv-x="1015" d="M-23 12q0 -10 15 -10q4 0 22 4t31 6q33 4 53 4q14 0 56 -4l24 -4q23 -4 37 -6q29 -6 41 -8q18 0 31 29q10 31 10 43q0 16 -12 16q-27 0 -35 41q-2 8 -2 27q0 47 24 147q31 129 164 459q12 29 23 28q12 0 22 -28q121 -322 148 -455q20 -90 20 -147q0 -23 -2 -31 q-10 -45 -33 -45q-14 0 -14 -17q0 -12 10 -38q8 -29 31 -29q16 4 74 12l16 2l35 4q47 4 59 4q61 0 121 -14q14 0 15 12q0 4 -5 17q-23 63 -36 78q-12 10 -50 79q-35 63 -100 230q-70 172 -188 514q-18 49 -19 94q0 39 17 82q129 336 190 467q61 133 86 172q20 37 33 37 q14 18 31 61q4 16 4 21q0 10 -13 10q-59 -14 -123 -14q-27 0 -73 6q-47 6 -72 14q-20 0 -31 -33q-8 -16 -8 -34t12 -25q23 -8 37 -49q4 -10 4 -43q0 -29 -10 -96q-23 -111 -121 -340q-20 -51 -32 -52q-10 10 -31 58q-98 246 -117 350q-16 78 -16 113q0 16 4 28q8 37 31 39 q8 0 8 19q0 14 -6 32q-12 33 -31 33q-33 -10 -76 -16l-24 -2q-43 -2 -56 -2q-63 0 -123 14q-10 0 -10 -23q0 -29 2 -34q20 -49 33 -50q6 0 27 -32l6 -11q23 -41 82 -192q49 -125 180 -498q12 -31 12 -61q0 -33 -16 -62q-156 -401 -217 -536q-78 -178 -103 -219 q-33 -61 -39 -64q-14 -8 -30 -63q-6 -12 -7 -19z" />
<glyph unicode="Y" horiz-adv-x="1028" d="M-6 1851l2 -6q18 -66 35 -88q18 -27 47 -94q23 -53 84 -236q51 -162 141 -514q16 -59 47 -182q16 -68 31 -121q10 -35 10 -71q0 -14 -2 -21q-2 -12 -10 -35q-2 -12 -6 -24q-49 -152 -88 -250q-29 -70 -43 -90q-16 -23 -23 -25q-8 -2 -26 -45q-4 -4 -5 -14q0 -10 5 -17 q2 -16 12 -16q12 2 33 6q20 2 28 4h6q35 4 54 4q23 0 67 -10q8 -2 35 -10q20 -4 31 -8q23 0 30 30q6 16 7 41q0 25 -15 25q-20 2 -30 63q-4 8 -5 33q0 53 27 197q29 158 158 565q135 416 196 584q59 168 86 223q25 47 31 47t27 64q2 6 2 14q0 14 -12 14q-35 -6 -62 -14 q-25 -8 -59 -8q-31 0 -70 8l-37 6q-23 4 -31 4q-20 0 -30 -31q-4 -12 -4 -30q0 -31 18 -31q25 -6 33 -68q0 -2 2 -14v-16q0 -63 -29 -207q-35 -180 -166 -574q-20 -65 -32 -65t-25 37q-2 4 -2 10q-2 6 -4 10q-4 16 -6 23q-125 418 -160 590q-33 145 -33 223q4 49 29 49 q16 0 16 35v12q-2 8 -2 16q-6 31 -28 31q-27 -8 -74 -12q-49 -6 -78 -6q-37 0 -51 4q-25 4 -56 12q-6 0 -18 -12q-8 -8 -8 -19z" />
<glyph unicode="Z" horiz-adv-x="966" d="M-2 51q0 -2 2 -10v-14q6 -39 29 -39q68 8 146.5 12t197.5 4q172 -6 344 -6q31 0 43 14q8 8 24 45q4 8 7 13q29 74 43 110q27 51 59 105q23 35 25 86q0 57 -31 57q-20 0 -39 -33q-23 -45 -33 -59q-55 -72 -127 -117q-70 -39 -139 -61q-59 -20 -115 -27q-29 -2 -43 -4h-8 q-45 0 -66 2q-20 0 -45 -2h-18q-12 0 -12 27q2 12 4 26l2 8q55 170 127 361q90 242 133 360q66 180 164 437q80 209 178 426q20 43 20 73q0 27 -24 27q-25 0 -96 -2l-54 -2q-74 -4 -213 -8h-192q-84 0 -90 16q-23 0 -49 -80q-18 -61 -37 -117q-18 -55 -43 -110 q-12 -27 -13 -66q0 -33 23 -33q20 0 39 35q23 37 37 68q31 63 147 131q88 49 201 49q43 0 82 -6q2 0 14 -6q4 -2 14 -6q10 0 11 -23q0 -18 -9 -37q-53 -174 -116 -342q-29 -76 -80 -215l-51 -133q-55 -152 -170 -446q-92 -227 -191 -428q-12 -27 -12 -60z" />
<glyph unicode="[" horiz-adv-x="120" d="M0 -166h115v78h-74v2050h74v78h-115v-2206z" />
<glyph unicode="\" horiz-adv-x="444" d="M25 1804l358 -1755h39l-359 1755h-38z" />
<glyph unicode="]" horiz-adv-x="120" d="M0 -88v-78h115v2206h-115v-78h74v-2050h-74z" />
<glyph unicode="_" horiz-adv-x="679" d="M-2 -78v-55h649v55h-649z" />
<glyph unicode="`" horiz-adv-x="106" d="M2 1876l33 -141q18 -104 43 -105q12 0 12 29q0 27 -12 76l-31 141h-45z" />
<glyph unicode="a" horiz-adv-x="940" d="M6 319q0 -10 17 -10q39 4 108 8q31 0 92 -6l10 -2q20 0 23 19q4 8 4 20q0 14 -6 14q-14 4 -27 15q-14 12 -18 45q0 39 22 123q7 16 19 16h379q16 0 22 -26q18 -66 23 -109q0 -27 -8 -43l-2 -2q-8 -12 -17 -16q-10 -6 -10 -39q4 -12 18 -15q6 -2 21 -2q35 4 96 8h6 q27 0 90 -6q6 0 19 -2q6 0 12 10q4 12 4 17l-2 4q-8 37 -18 37q-8 0 -27 29q-23 31 -59 133q-29 72 -111 346l-4 8l-162 541q-8 27 -18 26h-8q-10 -2 -19 -2h-20h-21h-96q-66 2 -98 6q-8 0 -11 -10q-2 -4 -2 -10v-8q6 -47 78 -54q68 -6 74 -75q0 -53 -37 -144 q-49 -123 -100 -293q-88 -256 -125 -344q-43 -102 -64 -131q-18 -31 -26 -30q-6 0 -19 -33q-2 -4 -2 -13zM268 672q0 10 4 22q6 37 25 84q6 20 25 74q6 14 8 22q10 31 26 82q16 49 27 80l23 72q14 45 24 74q6 14 10 14q8 0 15 -16q45 -111 94 -310q4 -10 14 -41 q12 -39 19 -53q16 -51 24 -84q2 -2 2 -20q0 -15 -14 -15h-313q-12 0 -13 15z" />
<glyph unicode="b" horiz-adv-x="917" d="M2 317q0 -14 18 -14l13 2q63 6 90 6h51q18 -2 53 -2h6h9q8 -2 37 -2q106 0 151 -2q84 0 125 8q199 49 260 162q61 115 62 221q0 143 -68 226q-70 82 -182 118q-6 6 -6 19q4 10 10 12q145 66 145 178q0 16 -12 60q0 6 -2 10q-14 45 -72 86q-61 41 -178 61q-51 10 -139 11 q-70 0 -189 -11h-34h-33q-33 0 -99 9q-16 0 -16 -19q0 -37 14 -39t31 -41q10 -29 25 -147q6 -76 6 -219v-62q-2 -41 -2 -78q-6 -264 -17 -346q-12 -104 -24 -137q-10 -35 -21 -35q-10 0 -12 -35zM199 1112v31q4 109 12 160q2 51 10 75q6 29 27 29q246 -6 305 -39 q61 -33 61 -115q0 -96 -94 -131q-45 -16 -112.5 -24t-174.5 -8q-35 0 -34 22zM205 879v69v64q0 16 24 16q43 -6 76 -6h72q117 -18 180 -49q66 -31 96 -74q31 -41 39 -90q6 -33 10 -98q-10 -86 -22 -131q-16 -63 -55 -103q-35 -37 -121 -67q-84 -25 -221 -31q-25 0 -33 8 q-10 14 -19 47q-10 39 -20 150q-4 35 -5 93t-1 202z" />
<glyph unicode="c" horiz-adv-x="940" d="M-2 874q0 -262 139 -450q139 -184 334 -184q78 0 188 30q109 25 172 82q31 18 31 39q0 29 17 127q6 39 18 88q6 31 6 33l2 4v2q0 6 -4 17l-2 2q-12 12 -18 12h-2q-25 0 -31 -37l-4 -23q-43 -104 -137 -192q-92 -84 -170 -84q-125 0 -248 149q-121 152 -121 377t98 387 q96 160 223 160q2 0 13 2h12q92 0 178 -59q100 -70 156 -182q12 -39 29 -39h10q14 0 14 16q0 12 -2 25v10q-23 57 -41 149q-2 27 -12 45q-12 20 -35 31q-92 66 -174 84q-96 14 -166 14q-84 0 -168 -51q-82 -49 -151 -137q-68 -86 -111 -203q-43 -123 -43 -244z" />
<glyph unicode="d" horiz-adv-x="899" d="M2 328q0 -18 14 -19q16 2 54 2q14 -2 47 -2h26h31q14 0 41 2q12 2 31 4q12 2 14 2q250 25 426 205q174 178 174 404q-2 168 -57 276q-57 109 -139 164q-88 57 -193 78q-119 20 -227 22h-6q-39 0 -48 -2q-8 -2 -45 -2h-55q-20 0 -57 4q-16 0 -17 -18q0 -33 13 -37 q6 -4 18 -39q10 -47 16 -145q4 -86 5 -178v-76q-2 -63 -2 -103q-6 -260 -15 -344l-4 -32q-14 -86 -18 -103q-12 -31 -19 -31q-8 0 -8 -32zM199 879q0 96 4 243l2 43q6 115 14 154q0 16 6 41q2 22 29 22h2q170 -6 301 -92q131 -88 137 -366q0 -186 -133 -342 q-139 -154 -323 -172q-16 0 -19 8q-2 8 -2 18q-12 63 -14 150q-2 43 -3 97t-1 196z" />
<glyph unicode="e" horiz-adv-x="876" d="M2 328q0 -18 16 -19q53 6 103 6h106h88q55 -2 105 -2q33 0 135 -2q61 0 135 -2q14 0 23 15q6 12 22 28q23 45 41 72q2 2 2 4q14 20 23 27q4 6 12 14q6 6 12 14q6 10 6 35q0 27 -22 27q-12 0 -41 -23t-49 -35q-74 -55 -205 -75q-125 -18 -195 -19q-4 0 -20 2h-23 q-45 0 -63 62q-14 53 -14 147v277v63q0 39 2 55q0 20 14 21h236h16q74 -4 115 -8q72 -6 88 -72q10 -31 24 -31h2q27 0 27 25v4l-2 2q-8 59 -8 127t8 119q0 2 2 6v4q0 20 -23 21h-2q-8 0 -14 -11q-8 -12 -14 -20q-43 -53 -95 -70q-55 -18 -141 -18h-209q-20 0 -20 22 q0 72 6 121q2 20 6 62q2 10 2 18q8 29 17 47q10 25 43 25q12 0 49 -2q23 0 49 -2q41 0 119 -7l16 -2q72 -8 135 -24q70 -20 101 -53q25 -31 53 -31h8q8 0 16 8q2 2 2 6q0 6 -6 14q-25 31 -49 72q-14 25 -51 74q-10 12 -27 16q-16 8 -28 8h-9q-8 0 -10 -2q-133 0 -262 -6h-6 q-164 -4 -256 -4q-57 0 -105 8q-16 0 -16 -18q0 -35 14 -35q14 -4 29 -39q12 -37 25 -143q2 -20 2 -29q4 -100 4 -166q0 -25 -2 -69q-2 -63 -2 -90q-2 -219 -15 -347q-10 -82 -24 -137q-12 -33 -23 -33q-8 0 -8 -32z" />
<glyph unicode="f" horiz-adv-x="813" d="M2 1448q0 -35 14 -35q14 -4 29 -39q12 -37 25 -143l2 -31q4 -109 4 -186v-62q-2 -39 -2 -75q-2 -8 -2 -27v-25q-2 -199 -15 -315q-8 -92 -18 -123q-10 -27 -16 -27q-8 0 -9 -32q0 -18 17 -19q37 4 106 8q25 0 58 -6q14 -2 34 -4q16 -4 21 -4q18 0 18 19q0 31 -8 34 q-4 2 -18 19l-4 4q-8 18 -21 78q-12 81 -12 200q0 27 -4 93v6q-2 25 -2 114q0 45 2 66v55q0 18 14 19l178 -2q37 0 119 -7l12 -2q72 -6 90 -71q6 -31 23 -31h2q27 0 27 23q0 2 -2 6v2q-8 86 -9 127q0 43 9 121q0 2 2 6v2q0 23 -23 22h-2q-10 0 -16 -10q-2 -8 -11 -20 q-43 -51 -96 -70q-53 -20 -143 -21l-150 5q-20 0 -20 22q0 70 6 125q4 35 6 61l2 23q8 29 17 47q10 25 45 25q10 0 45 -2q18 0 43 -2q59 -4 118 -13q59 -8 117 -28q57 -18 92 -54q24 -30 52 -30h2h8q10 0 16 8q2 2 2 8q0 8 -4 12q-33 41 -51 72l-12 18q-23 37 -39 56 q-6 10 -27 16q-16 8 -29 8h-8h-4l-4 -2q-168 0 -238 -2h-237q-55 0 -105 8q-16 0 -16 -18z" />
<glyph unicode="g" horiz-adv-x="980" d="M-2 889q0 -240 139 -410q137 -168 334 -168q82 0 193 39q115 37 178 88q27 20 26 37v4q-6 12 -12 37q0 147 2 227t4 121q8 98 23 129q8 27 26 27q12 0 15 39q0 10 -8 12q-4 4 -17 4q-8 0 -27 -2q-18 0 -26 -2h-53h-56q-37 0 -55 4q-20 0 -20 -16q4 -31 10 -33 q16 -10 22 -27q10 -18 21 -90q12 -63 12 -223q-4 -80 -4 -184q0 -39 -47 -62q-29 -14 -66 -26q-4 0 -12 -2q-37 -8 -63 -11q-127 0 -252 131q-117 127 -117 349v20q-2 16 -2 19q0 195 84 321q90 139 219 139q8 0 18 2h17q80 0 147 -30q82 -37 176 -144q12 -33 31 -32h10 q12 0 15 14v10q0 14 -2 21q-20 41 -35 88q-8 39 -35 67q-94 59 -174 76q-82 12 -166 12q-166 0 -319 -155q-154 -156 -154 -420z" />
<glyph unicode="h" horiz-adv-x="888" d="M2 328q0 -18 16 -19q10 2 19 2q59 6 86 6q35 0 104 -8q18 0 19 19q0 37 -10 37q-12 0 -23 34q-14 41 -20 138q-8 63 -9 219q0 6 2 55v68v61v59v7q2 4 2 8q4 10 19 10q25 -2 57 -2q31 0 55 -2h113h98q33 0 99 4q16 0 20 -10v-17q0 -80 -2 -127q-2 -242 -12 -342 q-8 -100 -19 -135q-8 -33 -16 -33t-8 -32q0 -18 18 -19q74 8 105 8t94 -6l12 -2q16 0 17 19q0 37 -11 37q-10 0 -22 34q-10 31 -21 136q-8 68 -8 227q0 6 2 53v62q0 260 13 364q10 109 20 139q6 29 18 29q8 0 9 37q0 20 -17 20q-61 -10 -106 -10q-37 0 -105 10 q-18 0 -18 -20q4 -29 12 -33q10 -2 21 -22q8 -12 18 -70q4 -18 5 -52t1 -124q0 -35 -16 -35q-23 2 -49 2q-41 2 -52 2h-100q-74 0 -110 -2h-58q-45 -2 -53 -2q-18 0 -18 27q0 143 8 190q10 53 18 68l2 4q10 12 17 12q8 2 8 37q0 18 -19 18q-47 -8 -104 -8t-105 8 q-16 0 -16 -18q0 -33 12 -37t21 -39q12 -41 18 -145q6 -68 6 -187v-73q-2 -49 -2 -97q-6 -225 -16 -342q-4 -74 -16 -133q-8 -33 -17 -33q-6 0 -6 -34z" />
<glyph unicode="i" horiz-adv-x="270" d="M2 328q0 -18 14 -19q33 4 97 8h10q35 0 104 -8q18 0 19 19q0 37 -10 37q-14 0 -23 32q-14 41 -20 135q-8 66 -9 222q0 8 2 57v68q0 223 13 362q10 109 20 139q10 29 19 29q8 0 8 39q0 18 -19 18q-47 -8 -104 -8q-58 0 -107 8q-14 0 -14 -18q0 -33 12 -37t21 -39 q12 -41 18 -145q6 -68 6 -187v-73q-2 -49 -2 -97q-6 -227 -16 -344q-4 -68 -16 -135q-8 -31 -17 -31q-6 0 -6 -32z" />
<glyph unicode="j" horiz-adv-x="321" d="M-162 70q0 -16 12 -29q10 -10 23 -10q45 10 86 32q16 10 29 17q39 23 55 35q53 39 90 80t105 88q4 0 16 18q8 10 8 43q-6 59 -12 72q-6 18 -8 41q-4 25 -9 118q-4 68 -8 304q-6 88 -6 225q0 86 6 137q6 102 23 139q10 29 24 29q12 0 13 39q0 18 -17 18q-49 -8 -106 -8 q-56 0 -105 8q-25 0 -24 -18q4 -35 14 -37q12 -2 25 -39q14 -45 22 -145q2 -47 2 -199v-158q-2 -213 -12 -323l-4 -51q-6 -80 -10 -113q-8 -47 -17 -66q-8 -14 -10 -30q-35 -70 -82 -109q-43 -37 -88 -61q-18 -6 -23 -17q-12 -12 -12 -30z" />
<glyph unicode="k" horiz-adv-x="858" d="M2 328q0 -18 16 -19q10 2 19 2q59 6 86 6q35 0 104 -8q12 0 19 2q10 4 10 13q-2 33 -12 32q-10 0 -21 17q-14 20 -22 76q-8 51 -8 208q0 43 4 50q2 4 18 24q6 6 12 14q10 12 35 46q20 27 41 45q2 4 14 16q0 2 7 2q6 0 22 -23q127 -221 162 -299q41 -88 41 -120 q-4 -33 -23 -39q-23 -6 -22 -49q6 -10 22 -13q6 -2 23 -2q18 2 76 2h75q35 0 48 -2q16 0 36 2h15q8 12 8 21q0 6 -2 12l-2 4q-18 33 -27 33q-8 0 -35 27q-27 35 -82 129q-63 109 -178 342q-4 10 -16 34q-2 4 -6 13q-6 16 -10 20q-6 14 -13 33q-2 4 -2 10q0 20 21 47 q150 188 211 260q63 70 88 88l4 2q18 14 22 15l4 -2q6 0 33 33q4 4 4 10t-6 12q-8 12 -18 12q-27 -6 -62 -6h-30q-20 -2 -25 -2h-27q-25 2 -43 2q-23 0 -57 4l-10 2q-18 0 -31 -18q-6 -12 -6 -21q0 -20 20 -20q29 -4 29 -43t-66 -152q-61 -106 -272 -360q-14 -20 -22 -21h-2 q-6 10 -7 19v29q-4 66 -4 174q0 106 8 196q6 98 23 142q12 29 27 28q14 0 16 35q0 10 -8 10q-10 2 -21 2q-55 -8 -104 -8q-57 0 -105 8q-16 0 -16 -18q0 -33 12 -37q10 -2 25 -39q10 -41 18 -145q4 -47 4 -195v-162q-6 -227 -16 -344q-8 -100 -18 -135q-8 -31 -19 -31 q-6 -10 -6 -32z" />
<glyph unicode="l" horiz-adv-x="819" d="M6 328q0 -18 21 -19q31 4 84 8h12q35 0 53 -2h6q147 -4 226 -4q74 -2 227 -2q31 4 49 43q12 25 18 39l19 37q12 23 31 43q12 14 28 43q4 6 4 25v8q-2 6 -2 8q0 16 -18 16h-8q-39 0 -64 -47q-12 -25 -100 -78q-92 -55 -191 -55h-59h-59q-33 0 -43 10q-12 16 -15 39 q-10 41 -14 148q-4 45 -4 174v117q2 248 16 362q8 104 25 139q10 29 24 29q8 0 9 39q0 8 -13 14q-8 4 -18 4q-27 -4 -64 -6q-25 -2 -63 -2h-41q-12 0 -37 4h-6q-4 0 -6 2q-12 0 -13 -18q4 -37 13 -37q12 -4 20 -39q8 -25 19 -143q4 -90 4 -187v-73q-2 -49 -2 -97 q-2 -217 -15 -344q-12 -111 -22 -135q-12 -31 -21 -31q-10 0 -10 -32z" />
<glyph unicode="m" horiz-adv-x="1073" d="M-53 1444q10 -37 26 -49q29 -12 43 -17q25 -6 45 -24t33 -70q12 -45 12 -143v-271q0 -131 -3 -216t-7 -132q-12 -106 -26 -135q-14 -31 -29 -31q-12 0 -12 -32q0 -18 22 -19q33 4 62 4h61h31q10 -4 33 -6q18 0 18 19q0 37 -12 38q-10 0 -27 37q-12 29 -22 138 q-10 86 -11 235q0 6 2 49v60v112q0 100 2 137q4 23 7 29q8 0 22 -29q6 -16 19 -41q39 -86 55 -122q29 -68 90 -203q12 -29 45 -100q23 -53 35 -80l10 -25q27 -57 29 -61q8 -14 14 -15q6 0 12 19q84 201 146 354q31 78 71 176q41 98 72 176q10 12 12 13h4q8 -6 9 -15 q-2 -39 -9 -110q0 -8 -2 -37q-6 -82 -6 -187q0 -143 -2 -229t-6 -131q-6 -88 -18 -133v-2q-10 -23 -17 -23l-2 2l-4 2q-6 0 -6 -28q0 -18 16 -19q37 4 107 8q27 0 90 -6l12 -2q18 0 19 19q0 35 -8 34q-10 0 -23 29q-8 31 -18 135q-10 113 -11 353q0 145 3 230t12 134 q12 109 30 135q12 27 27 27l4 -2q14 0 14 37q0 18 -12 18q-27 -6 -69 -6q-47 0 -70 6q-10 2 -23 2q-12 0 -18 -6q-74 -137 -158 -336q-55 -141 -147 -342q-2 -8 -6 -8q-2 0 -7 6q-51 109 -149 330q-86 195 -156 328q-2 10 -10 22q-4 2 -61 2q-57 -2 -72 -6q-27 0 -59 4 q-23 4 -60 8q-18 0 -18 -18z" />
<glyph unicode="n" horiz-adv-x="888" d="M-76 1458q10 -39 31 -49q29 -12 45 -16q33 -12 49 -23q23 -20 35 -70q10 -37 10 -90v-28q-2 -18 -2 -35q-2 -43 -4 -109.5t-2 -169.5q0 -147 -2 -225t-8 -123q-16 -106 -29 -135q-16 -29 -31 -29q-14 0 -14 -32q0 -18 25 -19q33 4 61 4h62h36q14 -4 37 -6q18 0 19 19 q-6 45 -19 45q-18 0 -30 24q-18 31 -25 127q-6 35 -6 158q0 121 2 198q0 27 2 66q2 53 2 78q4 111 6 166q0 20 6 28q8 0 21 -30q10 -25 51 -99q25 -47 41 -77q8 -12 53 -91q68 -119 94 -165q23 -37 80 -138q45 -82 68 -118q10 -16 18 -31q66 -112 80 -137v-13q2 0 4 2h2 q4 -6 6 -8l4 -6q4 -12 23 -12q4 0 16 4q18 6 29 18q-4 29 -4 119v160q0 109 2 162q2 51 2 122q0 248 14 373q8 98 25 139q12 27 27 27q12 0 12 37q0 20 -17 20l-36 -6l-11 -2q-14 -4 -45 -4q-57 0 -106 8q-16 0 -17 -18q0 -35 15 -35q16 0 31 -33q14 -35 26 -145 q8 -98 8 -211q0 -25 -2 -68q-2 -59 -2 -86v-106v-49q-2 -37 -2 -41q0 -41 -10 -41q-4 2 -6 4q-6 8 -21 29l-6 12q-45 86 -104 190q-39 68 -117 207l-23 39q-61 109 -88 158q-49 82 -88 160q-2 10 -10 22q-8 4 -61 6q-10 0 -25 2h-18q-8 0 -17 -2h-12q-23 0 -70 6l-24 4 q-31 2 -47 7q-18 0 -19 -19z" />
<glyph unicode="o" horiz-adv-x="980" d="M-2 889q0 -240 139 -410q137 -168 334 -168q199 0 336 168t137 410q0 117 -43 221q-39 104 -110 184q-68 80 -152 125t-168 45t-168 -45q-82 -45 -151 -125q-68 -80 -111 -184q-43 -113 -43 -221zM168 881q0 207 88 352q90 145 215 145q127 0 221 -131 q43 -66 64.5 -154.5t21.5 -211.5q-6 -231 -92 -365q-88 -131 -215 -131q-125 0 -215 145q-88 145 -88 351z" />
<glyph unicode="p" horiz-adv-x="802" d="M2 328q0 -18 14 -19q33 4 97 8h10q35 0 104 -8q18 0 19 19q0 23 -4 30q-8 8 -13 15q-10 10 -16 30q-8 25 -18 86v17q0 29 20 37q27 10 57 18q231 68 369 205q135 141 135 287q0 166 -71 256q-72 88 -173 121q-89 34 -206 34h-7q-111 0 -196 -6q-58 0 -107 8 q-14 0 -14 -18q0 -33 12 -37t21 -39q12 -41 18 -145q6 -68 6 -187v-73q-2 -49 -2 -97q-2 -219 -10 -346q-10 -102 -18 -133t-19 -31q-8 0 -8 -32zM186 762v117q0 174 9 317q6 76 16 154q0 8 8 20l2 6q6 10 35 10q229 -14 293 -116q63 -96 63 -226q0 -119 -120 -239 q-121 -115 -263 -174q-6 -4 -16 -4q-8 0 -12 8q-8 10 -8 31q-2 18 -5 63q-2 23 -2 33z" />
<glyph unicode="q" horiz-adv-x="980" d="M-2 889q0 -135 51 -264q51 -125 133 -199q16 -18 60 -51q39 -31 77 -53q4 0 5 -9q0 -6 -7 -12q0 -4 -12 -20q-10 -23 -26 -43q-8 -10 -17 -23q-20 -25 -31 -37q-14 -20 -14 -31v-4q6 -2 10 -18q0 -10 13 -10h6q6 2 12 2q25 35 90 35q78 -4 139 -17q25 -4 86 -20 q41 -10 50 -13q57 -14 75 -14q2 0 7 2h4t22 14q6 4 17 13q23 16 71 53q16 12 55 43q6 6 15 12q18 16 29 27q-2 0 -3 14l-2 13q0 27 -26 26q-72 -61 -195 -67q-88 0 -152.5 7t-125.5 23q-18 4 -19 11q-2 6 -2 18q0 16 23 16h10q14 -2 45 -2q199 0 336 168t137 410 q0 117 -43 221q-39 104 -110 184q-68 80 -152 125t-168 45t-168 -45q-82 -45 -151 -125q-68 -80 -111 -184q-43 -113 -43 -221zM168 881q0 207 88 352q90 145 215 145q127 0 221 -131q43 -66 64.5 -154.5t21.5 -211.5q-6 -231 -92 -365q-88 -131 -215 -131q-125 0 -215 145 q-88 145 -88 351z" />
<glyph unicode="r" horiz-adv-x="825" d="M2 328q0 -18 14 -19q33 4 97 8h10q35 0 104 -8q18 0 19 19q0 23 -4 30q-8 8 -13 15q-10 10 -16 30q-8 25 -18 86v17q0 29 22 37q14 6 55 18q6 2 19 6q8 2 14 4t14 4t15 5q27 10 51 10q18 0 53 -60q8 -12 15 -24q43 -76 51 -92q10 -27 10 -41q-8 -12 -16 -15q-8 -8 -9 -22 v-6q2 -6 3 -13q4 -8 28 -8h31h6q66 8 94 8q31 -6 58 -6q29 0 59 6q12 0 12 7q0 4 -4 12q-16 31 -28 35q-8 0 -31 16q-18 12 -62 70q-25 33 -102 164q-6 12 -14 24q-6 10 -7 17q0 16 17 24q14 12 51 41q90 80 135 156q53 88 53 170q0 166 -71 256q-76 88 -178 121 q-93 34 -210 34h-7q-113 0 -199 -6q-57 0 -107 8q-14 0 -14 -18q0 -33 12 -37t21 -39q12 -41 18 -145q6 -68 6 -187v-73q-2 -49 -2 -97q-2 -219 -10 -346q-10 -102 -18 -133t-19 -31q-8 0 -8 -32zM186 762v117q0 174 9 317q6 76 16 154q0 8 8 20l2 6q6 10 35 10 q129 -8 201 -38q70 -31 104 -78q37 -45 43 -105q8 -51 8 -121q0 -119 -120 -239q-121 -115 -263 -174q-6 -2 -14 -2q-12 0 -14 8q-8 10 -8 29q-2 18 -5 63q-2 23 -2 33z" />
<glyph unicode="s" horiz-adv-x="794" d="M4 539q0 -49 25 -60q57 -66 164 -121q102 -49 221 -49q131 0 243 111q109 109 109 291q-2 129 -49 202q-45 74 -117 117q-59 41 -149 72q-86 29 -156 63q-33 18 -74 49q-39 31 -39 66q0 51 41 80q37 31 92 31q8 2 25 2q59 0 139 -62q96 -71 121 -157q12 -41 41 -41 q12 0 18 12q6 6 7 16v6q-2 6 -2 7q-16 53 -27 81q-2 8 -8 43q-8 35 -11 41q-8 43 -36 43q-4 0 -11 2h-6q-4 2 -10 2q-90 74 -213 87q-115 -2 -190 -52q-78 -51 -82 -192q0 -68 43 -121q37 -49 102 -94q53 -35 135 -66q61 -20 144 -55q63 -33 104 -92q43 -70 43 -148 q0 -102 -78 -178q-74 -72 -133 -72l2 3q-6 -2 -10 -3q-158 0 -240 103q-92 106 -110 207q0 57 -31 57q-29 0 -29 -59q0 -31 -4 -88v-7q-4 -53 -4 -77z" />
<glyph unicode="t" horiz-adv-x="899" d="M0 1245q0 -6 4 -18q8 -16 25 -17q39 0 57 43q25 53 107 90q72 37 129 48q4 0 8 2h6q8 0 8 -4q2 -2 2 -15l2 -16q4 -31 8 -119q2 -49 2 -51q0 -135 -2 -254q-2 -41 -2 -64q-6 -262 -16 -344q-12 -96 -23 -133q-14 -33 -22 -33t-8 -32q0 -18 18 -19q8 2 29 2q18 2 28 2h7 q39 4 55 4q33 0 100 -6l13 -2q16 0 16 19q0 37 -8 37q-12 0 -25 34q-14 37 -22 136q-12 104 -13 344q0 201 6 313l5 59q2 80 6 111q4 27 6 29q0 2 8 2h4q4 -2 8 -2q37 -4 129 -39q82 -35 109 -95q18 -47 61 -47q16 0 27 17q6 10 6 18q0 4 -2 10l-2 5q-18 35 -53 90 q-31 47 -47 96q-8 31 -47 31q-115 -6 -263 -13q-35 -2 -104 -2q-107 0 -199 8h-2v3h-33q-14 0 -26 -48q-10 -37 -33 -77q-12 -23 -31 -62l-12 -24q-4 -6 -4 -17z" />
<glyph unicode="u" horiz-adv-x="864" d="M-2 1454q4 -37 14 -39q12 0 21 -37q12 -37 18 -145l2 -29q4 -94 4 -160q0 -25 -2 -71q-2 -66 -2 -96v-62q-2 -47 -2 -53q0 -37 -4 -94h2v-23v-24q4 -190 53 -256q49 -59 134 -60q80 6 180 51q102 49 190 74q8 4 17 4q0 -12 -2 -20q-12 -53 -27 -54q-12 0 -12 -36 q0 -18 16 -19q51 8 104 8q55 0 107 -8q16 0 16 19q0 39 -10 38q-10 0 -22 33q-10 27 -21 135q-2 41 -4 120t-2 224q0 258 12 365q10 111 21 137q6 31 18 31q8 0 8 39q0 18 -12 18q-2 -2 -4 -2l-12 -2q-63 -6 -95 -6q-29 0 -92 6l-12 2l-2 2h-4q-10 0 -10 -18q0 -37 10 -37 q10 -2 22 -41q10 -33 21 -145q2 -41 2 -174v-181v-53q-2 -57 -2 -117q2 -49 2 -127q-1 -36 -62 -61q-78 -29 -135 -47q-70 -20 -123 -25q-76 0 -98 23q-29 27 -33 215h-4v94v115q2 246 17 360q8 94 24 135q8 27 25 27q8 0 8 39q0 8 -10 16q-14 10 -21 11q-61 -10 -104 -11 q-37 0 -105 11q-18 0 -18 -19z" />
<glyph unicode="v" horiz-adv-x="888" d="M-8 1462q0 -6 2 -12q12 -33 22 -33q12 0 33 -33q20 -33 64 -149q55 -156 118 -379l17 -57q39 -133 55 -191q16 -55 45 -164l23 -82q8 -63 45 -63q29 0 49 63q4 12 12 35q4 16 15 47q4 16 8 31q2 4 6 19q10 41 18 59q2 4 4 18q5 19 7 19q12 45 40 127q25 72 52 172 q70 246 108 352q39 104 56 133q18 31 30 31q10 0 31 45q4 4 4 10q0 8 -16 8q-27 -6 -52 -6h-49h-61q-27 0 -60 4q-25 0 -24 -18q-2 -6 -2 -16q0 -16 14 -17q18 0 29 -33q2 -8 2 -32q0 -37 -12 -111q-12 -88 -93 -360l-36 -123q-8 -25 -13 -45q-12 -45 -18 -60 q-8 -33 -19 -33q-2 2 -8 17l-10 20q-4 16 -14 54q-10 35 -13 41q-8 31 -22 79l-12 37q-88 276 -109 375q-16 86 -16 117q0 6 2 16v6q6 27 24 27q12 0 13 16q0 14 -2 25q-6 18 -25 18q-33 -4 -70 -4h-69q-53 0 -109 8q-14 0 -14 -8z" />
<glyph unicode="w" horiz-adv-x="1177" d="M2 1464q2 -4 2 -6q25 -53 35 -53q12 0 24 -25q16 -33 50 -137q57 -201 104 -387l10 -37q43 -141 60 -209q20 -80 61 -243q16 -66 55 -66q20 0 37 35h-2q29 164 62 326q18 96 51 286l6 41l6 19l4 2q4 0 8 -21q45 -190 72 -317q45 -213 70 -320q16 -47 49 -47q31 0 47 64 q18 70 25 106q10 41 18 74q4 23 6 35q4 16 6 18q20 78 29 111q10 39 35 129q2 8 12 47q41 141 94 315l11 37l10 29q29 88 37 104q12 31 22 31q8 0 27 45q2 4 2 10q0 8 -14 8q-27 -6 -50 -6h-49q-57 0 -98 8q-20 0 -23 -20v-12q0 -23 13 -23q20 0 28 -37q2 -8 2 -32 q0 -41 -12 -113q-18 -109 -92 -365q-16 -45 -27 -98q-4 -20 -6 -25q-10 -43 -16 -61q-4 -23 -8 -22l-4 2q0 2 -5 8l-4 12q-25 117 -77 354q-39 186 -68 359q-10 37 -19 59q-12 25 -30 25t-33 -27q-12 -35 -16 -61q-10 -111 -52 -336q-14 -74 -43 -219q-14 -78 -24 -123 q-6 -31 -12 -31t-13 27q-12 45 -16 69q-8 35 -25 86q-80 270 -98 381q-14 74 -14 121q0 6 2 16v9q6 33 24 32q8 0 8 15q0 6 -4 26q0 8 -4 9l-2 -2l-12 -7q-14 -2 -70 -2h-69q-16 0 -45 4h-4q-16 4 -50 9q-14 0 -14 -11v-2z" />
<glyph unicode="x" horiz-adv-x="899" d="M-20 313q0 -4 12 -4q12 2 24 2q20 2 25 2q29 4 47 4q25 0 74 -6q18 -2 53 -6q2 0 14 -2q16 0 29 19q10 16 10 26t-12 10q-20 0 -31 25q-2 4 -2 16q0 31 21 93q25 76 149 282q10 18 21 19q8 0 20 -19q104 -193 133 -280q18 -61 19 -93q0 -10 -4 -18q-8 -27 -29 -27 q-12 0 -12 -12q0 -4 4 -14l4 -8q10 -18 26 -19l9 2q41 4 75 6q55 6 82 6q33 0 105 -8h6q12 0 12 6q0 4 -4 13q-20 35 -33 47q-14 8 -45 49q-20 27 -90 141q-51 88 -168 320q-18 29 -18 55q0 20 14 53q125 215 172 287q49 74 78 106q23 25 31 25q12 10 26 37l2 6l2 6 q0 6 -12 6q-51 -8 -108 -8q-41 0 -68 4q-47 4 -63 8q-18 0 -29 -20q-6 -12 -6 -23q0 -10 10 -14q20 -6 33 -29q4 -8 4 -26q0 -16 -10 -62q-20 -70 -107 -209q-20 -33 -31 -32q-10 8 -28 37q-84 150 -105 217q-14 51 -14 67q0 10 4 19q6 20 27 24q8 0 8 11q0 8 -6 20 q-10 20 -27 20q-16 -4 -43 -6q-20 -2 -27 -4q-29 -2 -71 -2q-59 0 -111 8q-6 0 -10 -12q0 -18 4 -22q18 -31 27 -31q10 0 30 -27q29 -37 74 -119q63 -111 164 -307q8 -16 8 -39t-12 -39q-109 -193 -197 -329q-72 -113 -90 -138q-6 -8 -12 -14q-20 -23 -25 -24 q-10 -4 -28 -37q0 -2 -2 -9q-2 -4 -2 -6z" />
<glyph unicode="y" horiz-adv-x="923" d="M-6 1452l2 -4q16 -41 33 -55q12 -10 41 -58q23 -33 75 -145q51 -113 127 -320q43 -104 70 -186q10 -31 10 -43q0 -10 -2 -14q-2 -6 -4 -13q-8 -14 -10 -22q-51 -106 -80 -156q-25 -45 -39 -55q-12 -14 -20 -14q-12 -6 -25 -29q-2 -2 -2 -10q0 -4 2 -11q2 -8 10 -8 q12 2 29 2q23 2 27 2l10 2q31 2 45 2q25 0 61 -6q10 -2 15 -2q31 -6 45 -8q18 0 26 16q6 10 6 27q0 14 -12 14q-20 4 -31 41v19q0 47 23 123q27 96 143 348q96 207 176 362q49 96 78 138q18 29 27 28q6 0 24 39q2 4 3 10q0 8 -13 9q-37 -4 -55 -9q-27 -6 -51 -6q-16 0 -49 2 q-8 2 -17 2q-20 4 -49 6l-12 3q-16 0 -27 -19q-2 -8 -2 -20q0 -18 14 -19q23 -2 31 -43v-18q0 -47 -22 -127q-27 -98 -152 -357q-18 -39 -29 -39q-10 0 -22 23l-6 12q0 6 -4 15q-117 266 -146 364q-29 96 -28 139q4 29 24 29q16 0 17 23v8q-2 6 -3 10q-6 18 -26 19 q-18 -4 -68 -9h-8q-45 -4 -59 -4q-33 0 -47 2q-29 4 -50 8q-10 0 -16 -8q-8 -6 -8 -10z" />
<glyph unicode="z" horiz-adv-x="858" d="M-2 340q0 -2 2 -8v-8q6 -23 27 -23q59 4 130.5 6t178.5 2q205 -4 309 -4q27 0 39 8q16 16 27 37q23 41 41 68q10 23 51 65q23 27 22 54q0 35 -28 34q-18 0 -33 -20q-18 -20 -31 -37q-39 -39 -115 -72q-66 -25 -124 -36q-66 -14 -103 -17q-18 -2 -37 -4h-10q-39 0 -59 2 q-20 0 -39 -2h-19q-10 0 -10 16q2 8 4 19q2 2 2 4q53 113 115 223q82 147 121 223q63 123 145 269q43 78 139 229l21 35q20 27 20 45q0 16 -24 16q-72 0 -135 -2q-92 -2 -191 -6h-172q-78 0 -82 10q-20 0 -43 -49q-10 -18 -22 -51q-2 0 -11 -20q-8 -18 -28 -54l-10 -16 q-12 -14 -13 -39q0 -20 19 -20q18 0 37 22l8 10q18 20 24 31q31 41 133 80q78 31 183 31q25 0 63 -5h10l7 -2q10 -2 18 -4q8 0 8 -14q0 -10 -6 -23q-39 -90 -106 -213q-27 -51 -78 -143l-39 -72q-43 -80 -127 -225q-12 -25 -27 -49q-86 -147 -170 -266q-12 -14 -12 -35z" />
<glyph unicode="{" horiz-adv-x="235" d="M0 952q0 -55 43 -104q43 -47 45 -103q10 -342 47 -561q37 -236 88 -293q-33 135 -55 363q-25 227 -31 504q0 49 -43 98q-43 43 -43 98q0 47 43 103q41 55 43 100q2 272 29 514q25 242 57 375q-49 -55 -90 -301q-39 -252 -47 -580q-4 -53 -43 -104q-43 -55 -43 -109z" />
<glyph unicode="|" horiz-adv-x="59" d="M16 49h41v1755h-41v-1755z" />
<glyph unicode="}" horiz-adv-x="235" d="M2 -109q51 61 88 293q39 242 47 561q4 55 45 103q43 49 43 104q0 53 -43 109q-43 59 -43 104q-8 328 -47 580q-41 246 -90 301q33 -133 57 -375q23 -244 29 -514q0 -45 43 -100t43 -103q0 -55 -43 -98q-43 -49 -43 -98q-8 -274 -31 -504q-24 -228 -55 -363z" />
<glyph unicode="~" horiz-adv-x="403" d="M2 1624q29 82 51 133q27 51 53 51q37 0 76 -110q8 -16 17 -43q4 -9 6 -17q0 -2 2 -4q0 -6 2 -10v2q41 -96 72 -96q25 0 53 53q23 47 51 131v17v18v14v17q-31 -92 -51 -133q-27 -51 -53 -52q-33 0 -76 109q-4 10 -12 35q-8 23 -11 26q-2 4 -2 9q0 6 -2 6v-2q-41 96 -72 96 q-27 0 -53 -53q-23 -47 -51 -131v-17v-16v-19v-14z" />
<glyph horiz-adv-x="174" d="M2 1694q0 -101 25 -156q25 -61 45 -61q4 0 4 8q0 14 -13 53q-6 18 -14 78l-2 14q14 -14 35 -14q35 0 59 45q23 39 23 108q0 68 -23 107q-25 45 -59 45q-68 0 -78 -156q-2 -25 -2 -71z" />
<glyph horiz-adv-x="182" d="M0 1769q0 -66 25 -108q25 -45 57 -45q20 0 37 14q-6 -41 -17 -92q-2 -4 -4 -10q-10 -37 -10 -43q0 -8 6 -8q18 0 45 61q25 55 25 158q0 45 -2 69q-8 156 -80 156q-33 0 -57 -45q-25 -43 -25 -107z" />
<glyph horiz-adv-x="360" d="M2 1694q0 -101 25 -156q25 -61 45 -61q4 0 4 8q0 14 -13 53q-6 18 -14 78l-2 14q14 -14 35 -14q35 0 59 45q23 39 23 108q0 68 -23 107q-25 45 -59 45q-68 0 -78 -156q-2 -25 -2 -71zM180 1696q0 -103 25 -158q29 -61 45 -61q4 0 4 8q0 14 -12 53q-10 51 -17 92 q16 -14 37 -14q35 0 60 45q23 45 22 108q0 61 -22 107q-25 45 -60 45q-70 0 -80 -156q-2 -25 -2 -69z" />
<glyph horiz-adv-x="370" d="M0 1769q0 -66 25 -108q25 -45 57 -45q20 0 37 14q-6 -41 -17 -92q-2 -4 -4 -10q-10 -37 -10 -43q0 -8 6 -8q18 0 45 61q25 55 25 158q0 45 -2 69q-8 156 -80 156q-33 0 -57 -45q-25 -43 -25 -107zM180 1769q0 -66 25 -108q20 -45 55 -45q23 0 37 14q-6 -41 -16 -92 q-12 -39 -13 -53q0 -8 4 -8q18 0 45 61q25 49 25 156q0 47 -2 71q-8 156 -80 156q-35 0 -55 -45q-25 -43 -25 -107z" />
<glyph unicode="&#xa3;" horiz-adv-x="813" d="M10 45q0 -16 4 -25q10 -23 21 -22q125 14 270 20q88 0 162 -3t149 -13q33 0 46 47q10 37 18 92q10 57 18 90q16 61 33 99q10 25 29 80q4 8 6 18q4 12 4 31q0 16 -2 26q-6 29 -27 29q-45 0 -63 -65q-49 -131 -141 -166q-92 -33 -220 -37q-53 0 -53 67v11q2 10 2 14 q10 113 27 203q14 94 14 204q0 47 -8 111h55h121l-12 70h-170q-12 98 -31 188q-14 100 -14 176q0 102 31 201q14 63 57 121q35 49 57 59q29 8 66 8q31 0 67 -26q18 -14 31 -27q0 -6 -12 -41l-2 -4q-25 -68 -25 -145q0 -96 35 -170q33 -70 86 -70q51 0 84 70q37 72 37 170 q0 68 -19 123q-37 147 -129 237t-206 90q-115 0 -199 -102q-82 -100 -119 -250q-29 -139 -29 -244q0 -92 13 -178q6 -37 16 -100q8 -59 12 -86h-49l12 -70h43q6 -61 7 -111q0 -174 -29 -352q-29 -162 -72 -330q-2 -4 -2 -18z" />
<glyph unicode="&#xad;" d="M0 571h522v64h-522v-64z" />
<glyph unicode="&#x2000;" horiz-adv-x="1034" />
<glyph unicode="&#x2001;" horiz-adv-x="2068" />
<glyph unicode="&#x2002;" horiz-adv-x="1034" />
<glyph unicode="&#x2003;" horiz-adv-x="2068" />
<glyph unicode="&#x2004;" horiz-adv-x="689" />
<glyph unicode="&#x2005;" horiz-adv-x="517" />
<glyph unicode="&#x2006;" horiz-adv-x="344" />
<glyph unicode="&#x2007;" horiz-adv-x="344" />
<glyph unicode="&#x2008;" horiz-adv-x="258" />
<glyph unicode="&#x2009;" horiz-adv-x="413" />
<glyph unicode="&#x200a;" horiz-adv-x="114" />
<glyph unicode="&#x2010;" d="M0 571h522v64h-522v-64z" />
<glyph unicode="&#x2011;" d="M0 571h522v64h-522v-64z" />
<glyph unicode="&#x2012;" d="M0 571h522v64h-522v-64z" />
<glyph unicode="&#x2013;" horiz-adv-x="1050" d="M0 571h1024v64h-1024v-64z" />
<glyph unicode="&#x2014;" horiz-adv-x="2074" d="M0 571h2048v64h-2048v-64z" />
<glyph unicode="&#x202f;" horiz-adv-x="413" />
<glyph unicode="&#x205f;" horiz-adv-x="517" />
<glyph unicode="&#xe000;" horiz-adv-x="1474" d="M0 0v1475h1475v-1475h-1475z" />
</font>
</defs>
</svg>
